<?xml version="1.0" encoding="utf-8"?>
<COLLADA xmlns="http://www.collada.org/2005/11/COLLADASchema" version="1.4.1" xmlns:xsi="http://www.w3.org/2001/XMLSchema-instance">
  <asset>
    <contributor>
      <author>Blender User</author>
      <authoring_tool>Blender 3.6.19 commit date:2024-12-16, commit time:12:51, hash:56679ff9b2b2</authoring_tool>
    </contributor>
    <created>2026-07-11T11:34:58</created>
    <modified>2026-07-11T11:34:58</modified>
    <unit name="meter" meter="1"/>
    <up_axis>Z_UP</up_axis>
  </asset>
  <library_effects>
    <effect id="Sheath-effect">
      <profile_COMMON>
        <technique sid="common">
          <lambert>
            <emission>
              <color sid="emission">0 0 0 1</color>
            </emission>
            <diffuse>
              <color sid="diffuse">0.14 0.11 0.09 1</color>
            </diffuse>
            <reflectivity>
              <float sid="specular">0.5</float>
            </reflectivity>
          </lambert>
        </technique>
      </profile_COMMON>
    </effect>
    <effect id="Gold-effect">
      <profile_COMMON>
        <technique sid="common">
          <lambert>
            <emission>
              <color sid="emission">0 0 0 1</color>
            </emission>
            <diffuse>
              <color sid="diffuse">0.85 0.65 0.2 1</color>
            </diffuse>
            <reflectivity>
              <float sid="specular">0.5</float>
            </reflectivity>
          </lambert>
        </technique>
      </profile_COMMON>
    </effect>
    <effect id="Gem-effect">
      <profile_COMMON>
        <technique sid="common">
          <lambert>
            <emission>
              <color sid="emission">0 0 0 1</color>
            </emission>
            <diffuse>
              <color sid="diffuse">0.6 0.06 0.1 1</color>
            </diffuse>
            <reflectivity>
              <float sid="specular">0.5</float>
            </reflectivity>
          </lambert>
        </technique>
      </profile_COMMON>
    </effect>
  </library_effects>
  <library_images/>
  <library_materials>
    <material id="Sheath-material" name="Sheath">
      <instance_effect url="#Sheath-effect"/>
    </material>
    <material id="Gold-material" name="Gold">
      <instance_effect url="#Gold-effect"/>
    </material>
    <material id="Gem-material" name="Gem">
      <instance_effect url="#Gem-effect"/>
    </material>
  </library_materials>
  <library_geometries>
    <geometry id="GanondorfSword_LOD1-mesh" name="GanondorfSword_LOD1">
      <mesh>
        <source id="GanondorfSword_LOD1-mesh-positions">
          <float_array id="GanondorfSword_LOD1-mesh-positions-array" count="1107">-0.004988908 0.8 0.00459218 -0.003818333 0.8 0.008485257 -0.002066433 0.8 0.01108652 0 0.8 0.01199996 0.002066493 0.8 0.01108652 0.003818333 0.8 0.008485257 0.004988908 0.8 0.00459218 0.005399942 0.8 0 0.004988908 0.8 -0.00459218 0.003818333 0.8 -0.008485257 0.002066433 0.8 -0.01108652 0 0.8 -0.01199996 -0.002066493 0.8 -0.01108652 -0.003818333 0.8 -0.008485257 -0.004988908 0.8 -0.00459218 -0.005399942 0.8 0 -0.01247233 -0.18 0.01148051 -0.009545922 -0.18 0.02121317 -0.005166172 -0.18 0.02771633 0 -0.18 0.02999997 0.005166232 -0.18 0.02771633 0.009545922 -0.18 0.02121317 0.01247233 -0.18 0.01148045 0.01349997 -0.18 0 0.01247233 -0.18 -0.01148051 0.009545922 -0.18 -0.02121317 0.005166172 -0.18 -0.02771633 0 -0.18 -0.02999997 -0.005166232 -0.18 -0.02771633 -0.009545922 -0.18 -0.02121317 -0.01247233 -0.18 -0.01148045 -0.01349997 -0.18 0 -0.012488 -0.1799999 0.01151418 -0.009554564 -0.1799998 0.02125763 -0.00516653 -0.1799998 0.02776479 0 -0.1799999 0.03001093 0.00516659 -0.1799998 0.02776479 0.009554564 -0.1799998 0.02125757 0.012488 -0.1799999 0.01151412 0.01352185 -0.1799999 0 0.012488 -0.1799999 -0.01151418 0.009554564 -0.1799998 -0.02125763 0.00516653 -0.1799998 -0.02776479 0 -0.1799999 -0.03001093 -0.00516659 -0.1799998 -0.02776479 -0.009554564 -0.1799998 -0.02125757 -0.012488 -0.1799999 -0.01151412 -0.01352185 -0.1799999 0 0 0.213439 0.02657949 0 0.2134392 -0.02657949 -0.01068246 0.2836231 0.009836137 -0.00817275 0.2842834 0.01816534 -0.00442177 0.2846032 0.02372872 0.00442177 0.2846034 0.02372872 0.00817275 0.2842833 0.01816529 0.01068246 0.2836233 0.009836137 0.01153635 0.2880508 0 0.01068246 0.2836235 -0.009836137 0.00817275 0.2842837 -0.01816534 0.00442177 0.2846031 -0.02372872 -0.00442177 0.284603 -0.02372872 -0.00817275 0.284283 -0.01816529 -0.01068246 0.2836234 -0.009836137 -0.01153635 0.2880509 0 0 0.5441359 0.02094346 0 0.5441357 -0.02094346 -0.008154749 0.5986576 0.007506608 -0.006237447 0.5991452 0.01386058 -0.003374814 0.599381 0.01810407 0.00312525 0.6556597 0.01677185 0.006237447 0.5991451 0.01386058 0.008154749 0.5986573 0.007506608 0.008787989 0.6019167 0 0.008154749 0.5986571 -0.007506608 0.006237447 0.5991451 -0.01386058 0.003374814 0.599381 -0.01810407 -0.00312525 0.65566 -0.01677185 -0.006237447 0.5991452 -0.01386058 -0.008154749 0.5986572 -0.007506608 -0.008787989 0.6019168 0 0 0.726325 0.0155701 0 0.726325 -0.0155701 -0.005559861 0.8000041 0.002614021 -0.003971338 0.800007 0.008697628 -0.00217235 0.8000128 0.0114116 0.003971338 0.800007 0.008697628 0.005559861 0.8000041 0.002613961 0.005166649 0.8000047 -0.004659652 0.003971338 0.800007 -0.008697628 0.00217235 0.8000128 -0.0114116 -0.003971338 0.800007 -0.008697628 -0.005166649 0.8000047 -0.004659652 0.001316487 0.7999978 0.0117976 -0.001316487 0.7999978 -0.0117976 -0.01385819 -0.1899999 0.005740225 -0.01060658 -0.1899999 0.01060658 -0.005740225 -0.1899999 0.01385819 0 -0.1899999 0.01499998 0.005740225 -0.1899999 0.01385813 0.01060658 -0.1899999 0.01060658 0.01385819 -0.1899999 0.005740225 0.01499998 -0.1899999 0 0.01385813 -0.1899999 -0.005740225 0.01060658 -0.1899999 -0.01060658 0.005740225 -0.1899999 -0.01385819 0 -0.1899999 -0.01499998 -0.005740225 -0.1899999 -0.01385813 -0.01060658 -0.1899999 -0.01060658 -0.01385819 -0.1899999 -0.005740225 -0.01499998 -0.1899999 0 -0.01201039 -0.42 0.004974842 -0.009192347 -0.42 0.009192347 -0.004974842 -0.42 0.01201039 0 -0.42 0.01299995 0.004974842 -0.42 0.01201039 0.009192347 -0.42 0.009192347 0.01201039 -0.42 0.004974842 0.01299995 -0.42 0 0.01201039 -0.42 -0.004974842 0.009192347 -0.42 -0.009192347 0.004974842 -0.42 -0.01201039 0 -0.42 -0.01299995 -0.004974842 -0.42 -0.01201039 -0.009192347 -0.42 -0.009192347 -0.01201039 -0.42 -0.004974842 -0.01299995 -0.42 0 -0.01201039 -0.42 0.004974842 -0.009192347 -0.42 0.009192347 -0.004974842 -0.42 0.01201039 0 -0.42 0.01299995 0.004974842 -0.42 0.01201039 0.009192347 -0.42 0.009192347 0.01201039 -0.42 0.004974842 0.01299995 -0.42 0 0.01201039 -0.42 -0.004974842 0.009192347 -0.42 -0.009192347 0.004974842 -0.42 -0.01201039 0 -0.42 -0.01299995 -0.004974842 -0.42 -0.01201039 -0.009192347 -0.42 -0.009192347 -0.01201039 -0.42 -0.004974842 -0.01299995 -0.42 0 0.01499998 -0.1899999 0 0.01060658 -0.1899999 -0.01060658 0 -0.1899999 -0.01499998 0 -0.1899999 0.01499998 0.01060658 -0.1899999 0.01060658 0.01385819 -0.1899999 0.005740225 -0.01385819 -0.1899999 0.005740225 -0.01060658 -0.1899999 0.01060658 -0.005740225 -0.1899999 0.01385819 0.005740225 -0.1899999 0.01385813 0.01385813 -0.1899999 -0.005740225 0.005740225 -0.1899999 -0.01385819 -0.005740225 -0.1899999 -0.01385813 -0.01060658 -0.1899999 -0.01060658 -0.01385819 -0.1899999 -0.005740225 -0.01499998 -0.1899999 0 0.02168667 -0.1807151 -0.004326164 0.0142064 -0.1654229 -0.005763947 0.01253813 -0.1806994 -0.002570867 0.01167213 -0.175 -0.002397477 0.01253813 -0.1693005 -0.002570867 0.02168667 -0.1692848 0.004326164 0.02141547 -0.1782418 0.01429373 0.0199564 -0.1846733 0.004037261 0.01731526 -0.1859616 0.003441512 0.0142064 -0.1845771 0.005763947 0.01731526 -0.1640384 0.003441452 0.0199564 -0.1653267 0.00403732 0.01707482 -0.175 0.02959901 0.01923781 -0.1694756 0.02076625 0.01681262 -0.1805239 0.02794355 0.01539021 -0.1845374 0.0250194 0.01262021 -0.1655142 0.0145387 0.01003623 -0.175 0.04047918 0.009425818 -0.1804428 0.0164774 0.00909692 -0.175 0.01495522 0.009425818 -0.1695572 0.0164774 0.0137372 -0.1694759 0.03400623 0.01015198 -0.1805262 0.03871077 0.01097452 -0.1859989 0.02700787 0.008767724 -0.1844736 0.02321815 0.006485283 -0.1654902 0.02549403 0.01097452 -0.164001 0.02700787 0.01276487 -0.1654169 0.03122496 0.002082347 -0.175 0.04491412 0.007737398 -0.1845613 0.03680217 0.003420293 -0.175 0.0220611 0.006234824 -0.1694657 0.04188466 0.00206077 -0.1803318 0.04362094 0.001905441 -0.1655113 0.03958529 -0.004389524 -0.175 0.04413533 -0.001905441 -0.1844887 0.03958529 0 -0.1860267 0.03441435 0 -0.1844476 0.0286628 0.001114666 -0.180139 0.02465629 -0.001085638 -0.175 0.02302849 0.001114666 -0.1698609 0.02465629 0 -0.1655523 0.0286628 0 -0.1639732 0.03441435 -0.00206077 -0.1696681 0.04362094 -0.01003623 -0.175 0.04047918 -0.006234824 -0.1805342 0.04188466 -0.0058887 -0.1654574 0.03786164 -0.006485283 -0.1845098 0.02549403 -0.006485283 -0.1654902 0.02549403 -0.01015198 -0.1694737 0.03871071 -0.01707482 -0.175 0.02959901 -0.0137372 -0.180524 0.03400623 -0.01276487 -0.1845831 0.03122496 -0.01097452 -0.1859989 0.02700787 -0.007580161 -0.1804469 0.01991468 -0.007405459 -0.175 0.01829457 -0.007580161 -0.1695531 0.01991468 -0.01097452 -0.164001 0.02700787 -0.01681262 -0.169476 0.02794355 -0.02239221 -0.175 0.009149312 -0.01923781 -0.1805243 0.02076625 -0.01559817 -0.1654226 0.02560091 -0.01262027 -0.1844857 0.0145387 -0.01262021 -0.1655142 0.0145387 -0.02090919 -0.1694753 0.01276278 -0.02168667 -0.1807151 0.004326164 -0.0199564 -0.1846733 0.004037261 -0.01731532 -0.1859616 0.003441452 -0.01253813 -0.1806994 0.002570867 -0.01167213 -0.175 0.002397477 -0.01253813 -0.1693005 0.002570867 -0.01731526 -0.1640384 0.003441512 -0.02168667 -0.1692848 -0.004326164 -0.02141547 -0.1782418 -0.01429373 -0.0142064 -0.1845771 -0.005763947 -0.0142064 -0.1654229 -0.005763947 -0.0199564 -0.1653267 -0.00403732 -0.01707482 -0.175 -0.02959901 -0.01923781 -0.1694756 -0.02076625 -0.01681262 -0.1805239 -0.02794355 -0.01003623 -0.175 -0.04047918 -0.01559817 -0.1845774 -0.02560085 -0.009425818 -0.1804428 -0.0164774 -0.00909692 -0.175 -0.01495522 -0.009425818 -0.1695572 -0.0164774 -0.01340097 -0.164001 -0.02220612 -0.0137372 -0.1694759 -0.03400623 -0.01015198 -0.1805262 -0.03871077 -0.01239204 -0.1859982 -0.02511185 -0.008767783 -0.1844736 -0.02321815 -0.008767724 -0.1655263 -0.02321815 -0.01276487 -0.1654169 -0.03122496 -0.002082347 -0.175 -0.04491412 -0.0058887 -0.1845425 -0.03786164 -0.003420293 -0.175 -0.0220611 -0.006234824 -0.1694657 -0.04188466 -0.00206077 -0.1803318 -0.04362094 -0.001905441 -0.1655113 -0.03958529 0.004389524 -0.175 -0.04413533 0 -0.1844476 -0.0286628 -0.001114666 -0.180139 -0.02465629 0.001085638 -0.175 -0.02302849 -0.001114666 -0.1698609 -0.02465629 0 -0.1655523 -0.0286628 -0.001687347 -0.1639625 -0.03461802 0.00206077 -0.1696681 -0.04362094 0.01003623 -0.175 -0.04047918 0.006234824 -0.1805342 -0.04188466 0.00375694 -0.1844778 -0.03940111 0.001687347 -0.1860375 -0.03461802 0.0058887 -0.1654574 -0.03786164 0.006485283 -0.1845098 -0.02549403 0.01015198 -0.1694737 -0.03871071 0.01707482 -0.175 -0.02959901 0.0137372 -0.180524 -0.03400623 0.007580161 -0.1804469 -0.01991468 0.007405459 -0.175 -0.01829457 0.007580161 -0.1695531 -0.01991468 0.008767724 -0.1655263 -0.02321815 0.01681262 -0.169476 -0.02794355 0.02239221 -0.175 -0.009149312 0.01923781 -0.1805243 -0.02076625 0.01559817 -0.1845774 -0.02560085 0.01340097 -0.185999 -0.02220612 0.01239204 -0.1640018 -0.02511185 0.01559817 -0.1654226 -0.02560085 0.01262027 -0.1844857 -0.0145387 0.02090919 -0.1694753 -0.01276278 0 -0.4221881 0.01567357 0.002388358 -0.4151018 0.002684056 0.00243479 -0.4152613 -0.004231631 0.001192986 -0.4198694 -0.01323294 0.00680083 -0.4185811 0.00956887 0.01011747 -0.4177196 0.001826345 0.007627665 -0.4181956 -0.008417546 0.002884685 -0.4280358 -0.01864719 0.002987086 -0.4279967 0.01861006 0.00755608 -0.4247771 0.0156635 0.006086468 -0.4244626 -0.01610559 0.01324391 -0.4246779 0.01111125 0.0152738 -0.4230265 0.005695343 0.01610755 -0.4228777 -0.001761078 0.0141732 -0.4241245 -0.00955832 0.01086175 -0.4286544 -0.01583051 -0.001739263 -0.4367393 0.0199868 0.01182162 -0.4298483 0.01548343 0.01931786 -0.4298291 0.001971423 0.01847791 -0.4332194 0.008325219 0.01980465 -0.4324266 -0.003858745 0.0150395 -0.4319924 -0.01308095 0.005788922 -0.4333313 -0.0192185 0.00905162 -0.434498 0.01806384 0.01505917 -0.4376198 0.01319217 0.01859432 -0.4375611 -0.007816433 0.003608405 -0.4335054 0.0197488 0.01868468 -0.4419155 0.003898262 0.01710331 -0.4448746 -0.004443943 0.01453834 -0.4406566 -0.01282191 0.009055137 -0.4369376 -0.01791441 0.009943962 -0.4430601 0.01557695 0.01430499 -0.4458147 0.009395837 0.008666992 -0.4441926 -0.01576089 0.0119912 -0.4512028 0.001999616 0.01182323 -0.4503357 -0.005918145 0.01024067 -0.4480156 -0.01144099 0.006901681 -0.4512934 0.009747445 0.004928469 -0.4543773 0.001970708 0.005104303 -0.4530791 -0.007477581 0.003261148 -0.4397407 -0.01932394 0.003345489 -0.4404268 0.01916474 0.003549873 -0.4466127 0.016173 0.0013085 -0.4503919 0.01295661 -0.00184381 -0.4548379 0.003898262 -0.002672314 -0.4547511 -0.004003465 2.51898e-4 -0.4500548 -0.01349937 -0.005672633 -0.4505828 0.01180326 -0.009955108 -0.4521878 0.003956496 -0.007297813 -0.4522963 -0.007765114 1.36766e-5 -0.4451282 -0.01762968 -0.004775345 -0.4432713 0.0177688 -0.01427537 -0.4492754 0 -0.004232108 -0.4389025 -0.01934421 -0.01243096 -0.4439617 0.01309639 -0.01490944 -0.446174 0.008062779 -0.01430499 -0.4458147 -0.009395837 -0.009300053 -0.4451175 -0.01502394 -0.01860326 -0.4428793 -0.001777827 -0.008764386 -0.4382794 0.01786744 -0.01648646 -0.4370456 0.01161718 -0.01925164 -0.4381303 0.005242824 -0.0176196 -0.4373197 -0.00956887 -0.01291477 -0.4367003 -0.01539433 -0.003261864 -0.4306105 0.01943612 -0.01500469 -0.4322589 0.01321488 -0.01866209 -0.4299995 0.005494594 -0.01993519 -0.4323755 -0.002462267 -0.01709955 -0.4305817 -0.009611725 -0.009399175 -0.4320564 0.01760709 -0.01177018 -0.429988 -0.01558518 -0.004017293 -0.4340735 -0.01987588 -0.01216793 -0.4252377 0.01282191 -0.01538395 -0.4233935 0.006132066 -0.01593005 -0.4225744 -0.001777768 -0.01432359 -0.4242756 -0.009386956 -0.007051348 -0.4246979 0.01584434 -0.007042407 -0.4185506 0.009386956 -0.007944822 -0.416263 7.24736e-4 -0.006862938 -0.4177753 -0.008355319 -0.005298256 -0.4238679 -0.01620149 -0.001627147 -0.4295384 -0.01937127 0 -0.4172543 0.009487867</float_array>
          <technique_common>
            <accessor source="#GanondorfSword_LOD1-mesh-positions-array" count="369" stride="3">
              <param name="X" type="float"/>
              <param name="Y" type="float"/>
              <param name="Z" type="float"/>
            </accessor>
          </technique_common>
        </source>
        <source id="GanondorfSword_LOD1-mesh-normals">
          <float_array id="GanondorfSword_LOD1-mesh-normals-array" count="1098">0 1 -9.95018e-6 0 1 -9.95018e-6 0 1 -6.16728e-5 0 1 7.70276e-6 0 1 1.39297e-5 0 1 2.53764e-6 0 1 9.35268e-6 0 1 -6.84814e-6 0 1 -1.15399e-6 0 1 -6.08531e-6 0 1 -1.00427e-5 0 1 4.46407e-6 0 1 -3.25226e-5 0 1 2.97398e-5 0 1 -5.27499e-5 0 1 1.23345e-4 0 -1 -7.12601e-6 0 -1 1.18506e-6 0 -1 9.86765e-6 0 -1 -1.78125e-6 0 -1 1.13397e-6 0 -1 1.97286e-6 0 -1 -2.74609e-7 0 -1 2.28903e-6 0 -1 -1.48747e-6 0 -1 -6.13346e-7 0 -1 -1.95602e-6 0 -1 -2.22875e-6 0 -1 -8.89777e-7 0 -1 2.79523e-7 0 -1 1.45301e-6 0 -1 0 4.86367e-7 0.009638607 0.9999536 -0.6390025 0.007391571 0.7691693 1.3892e-6 0.008721292 0.999962 0.6390034 0.007391571 0.7691684 -5.49805e-7 0.009638607 -0.9999536 0.6390021 0.007391571 -0.7691695 -2.9028e-7 0.008721292 -0.999962 -0.6390024 0.007391571 -0.7691693 -0.9818383 0.006544053 0.1896073 -0.9999912 0.004219591 0 -0.9817724 0.004509866 0.1900072 -0.903577 0.008488178 0.4283419 -0.9033213 0.005542576 0.428929 -0.6189282 0.01332151 0.7853346 0.9033215 0.005542635 0.4289284 0.6190123 0.01349216 0.7852655 0.9817725 0.004509866 0.190007 0.9035364 0.008643209 0.4284241 0.9999912 0.004219591 -1.61919e-7 0.9818384 0.006544113 0.1896067 0.9818382 0.006544113 -0.1896073 0.9817723 0.004509866 -0.1900075 0.9035771 0.008488237 -0.4283417 0.9033213 0.005542635 -0.428929 0.618929 0.01332145 -0.785334 -0.9033216 0.005542635 -0.4289281 -0.6190129 0.01349216 -0.785265 -0.9817724 0.004509866 -0.1900069 -0.9035363 0.008643209 -0.4284245 -0.9818383 0.006544172 -0.1896069 0.02727383 0.02032184 0.9994215 -0.02727347 0.02032184 -0.9994215 -0.9817721 0.01250553 0.1896499 -0.9999751 0.007065117 1.72732e-7 -0.9034721 0.01628935 0.4283372 -0.6152889 0.0240969 0.7879335 0.6169087 0.02733856 0.7865599 0.893019 0.01398295 0.4498019 0.9999752 0.007065057 -1.86314e-7 0.9817723 0.01250541 0.1896495 0.9817852 0.01268792 -0.18957 0.9034723 0.01628947 -0.428337 0.6152891 0.0240969 -0.7879332 -0.6169085 0.02733856 -0.7865601 -0.8930191 0.01398301 -0.4498018 -0.9817854 0.01268786 -0.1895696 -0.03667253 0.03928852 0.9985548 0.03667342 0.03928852 -0.9985548 -0.9948236 0.0179708 0.1000149 -0.9999144 0.01308041 -3.04141e-4 -0.913332 0.02135813 0.4066556 -0.5286532 0.04168391 0.8478138 0.8878768 0.02572703 0.4593616 0.9999145 0.01308041 -3.04162e-4 0.9948238 0.0179708 0.100014 0.985342 0.01771599 -0.1696683 0.9066853 0.02112257 -0.4212787 0.5286533 0.04168391 -0.8478139 -0.8803768 0.02545446 -0.4735915 -0.9853422 0.01771599 -0.1696671 0.3730165 0.04765146 0.9266002 -0.3730164 0.04765146 -0.9266003 0 1 3.91743e-6 0 1 6.15e-6 0 1 -3.55236e-5 0 1 -8.39459e-7 0 1 1.20499e-6 0 1 -1.08421e-6 0 1 0 0 1 2.59611e-7 0 1 0 0 1 6.94552e-7 0 1 0 0 1 -1.19179e-6 0 1 1.17926e-6 0 1 -6.34219e-6 0 1 1.15832e-5 0 1 0 0 -1 -7.704e-6 0 -1 -6.42001e-7 0 -1 1.3572e-6 0 -1 3.28321e-7 0 -1 2.41305e-6 0 -1 0 0 -1 1.09252e-6 0 -1 0 0 -1 1.4842e-6 0 -1 4.06649e-6 0 -1 0 0 -1 1.36286e-5 0 -1 -2.31321e-5 0.9999622 -0.008695304 -5.13182e-7 0.9238448 -0.008695304 0.3826685 0.9999622 -0.008695304 -6.66662e-7 0.7070798 -0.008695304 -0.7070804 0.9238445 -0.008695304 -0.3826693 0.7070799 -0.008695304 -0.7070802 0.3826686 -0.008695304 -0.9238448 0.9238449 -0.008695304 0.3826683 0.7070804 -0.008695304 0.7070797 -0.9238445 -0.008695304 0.3826693 -0.9999622 -0.008695304 2.65699e-7 -0.9238446 -0.008695304 0.382669 -0.7070798 -0.008695304 0.7070803 -0.3826687 -0.008695304 0.9238447 -0.3826686 -0.008695304 0.9238448 2.11506e-7 -0.008695304 0.9999623 0.3826693 -0.008695304 0.9238445 0.3826694 -0.008695304 0.9238445 0.9238445 -0.008695304 -0.3826694 0.3826688 -0.008695304 -0.9238448 -1.77163e-7 -0.008695304 -0.9999622 -0.3826695 -0.008695304 -0.9238444 -0.3826691 -0.008695304 -0.9238446 -0.7070804 -0.008695304 -0.7070797 -0.7070803 -0.008695304 -0.7070798 -0.9238448 -0.008695304 -0.3826686 -0.9238448 -0.008695304 -0.3826685 -0.9999622 -0.008695304 4.3572e-7 0.9941401 -0.002168715 -0.1080783 0.967826 -0.1844016 0.171199 0.932007 -0.3577932 -0.05785357 -0.706852 0.6802924 -0.1938105 0.0786755 0.9968841 -0.005690932 -0.7468979 0.6538024 0.1211861 -0.659956 -0.7435484 -0.1076749 -0.8633165 -0.3230297 -0.3877328 -0.9624942 -0.2646585 0.05967253 -0.9292798 -2.87872e-7 -0.3693768 -0.9985104 -1.24914e-7 0.05456417 -0.9536745 0.2983857 0.03835415 -0.8375513 0.3606358 -0.4104261 0.898669 0.3673238 0.2397235 0.9692153 0.2402132 0.05403298 0.6331833 -0.739037 0.2300072 0.738082 -0.6732097 0.04498678 0.1161713 -0.9923502 0.04177796 0.06192696 -0.9980799 0.001300156 -0.4530242 -0.8286057 -0.3289098 0.1089349 0.9939122 0.01648688 0.7179823 0.6949943 0.03852891 0.5486803 0.7582188 0.352213 0.7827314 0.3375365 0.5228776 0.9076498 0.007293283 0.4196652 0.6536509 -0.405312 0.6391109 0.8499163 -0.3607827 0.3840286 0.3723444 -0.8103914 0.4523555 -0.3544747 0.8373392 -0.4161863 -0.1348782 -0.514055 -0.8470864 -0.5817257 0 -0.8133851 -0.1232181 0.5303478 -0.8387781 0.4347019 0.4653766 0.7710117 0.6764448 -0.003134012 0.7364867 0.1622132 -0.4695674 0.8678672 -0.008783578 -0.9957742 0.0914157 -5.94773e-4 -0.8903018 -0.4553707 0.01191616 0.8851934 -0.4650707 0.01105719 0.996201 0.08637839 0.1210551 0.8387287 0.5309235 -0.1098485 -0.8399403 0.5314448 0.2729341 -2.82744e-7 -0.9620327 -0.1624787 0.4690001 0.8681243 0.1863172 0.002754807 0.9824858 -0.3499875 0.002404034 0.9367514 -0.4288741 -0.4759978 0.7677845 -0.3031234 0.8259721 0.4752751 -0.6884794 0.00548774 0.7252352 -0.5486795 -0.7582209 0.3522103 -0.1089329 -0.9939125 0.01648271 0.3320012 -0.8422686 -0.4246867 0.7422746 -0.3929215 -0.5428087 0.7422748 0.3929219 -0.5428081 0.3320034 0.8422687 -0.424685 -0.09561502 0.99408 0.05160242 -0.6456652 0.425716 0.633942 -0.7827318 -0.3375372 0.5228765 -0.6376684 0.7282054 0.2511892 -0.911952 -0.002414464 0.4102901 0.6842168 -0.7019307 -0.1978403 0.684216 0.7019314 -0.1978403 -0.8743309 0.3048465 0.377643 -0.8996482 -0.3613048 0.2451368 -0.9941401 -0.002168953 0.1080783 -0.7206271 -0.6925634 0.032444 -0.07867485 -0.9968841 -0.00568813 0.9624943 -0.2646586 -0.05967235 0.8506317 0 -0.5257622 0.9624944 0.2646578 -0.05967265 -0.1747372 0.9839293 0.03674596 -0.9139713 0.3711135 0.1641075 -0.9599588 -0.2785202 0.03009551 -0.6961197 0.7165208 -0.04489243 0.732376 -0.6723884 0.1073276 0.7139397 0.6931961 0.09883975 -0.9692153 0.2402127 -0.0540331 -0.9650445 -0.2111595 -0.1552443 -0.6547842 -0.7123456 -0.2526292 -0.106809 -0.9936531 -0.03529077 0.8633172 -0.3230298 0.387731 0.9292798 0 0.3693768 0.9985104 -3.3871e-7 -0.05456417 0.8633166 0.3230288 0.3877332 -0.1789146 0.9833896 -0.03057152 -0.898669 0.3673235 -0.2397238 0.4192835 -0.834647 0.3571636 0.4492015 0.8120936 0.3724541 -0.5431293 0.7664183 -0.3429486 -0.7827314 0.3375363 -0.5228775 -0.9076498 0.007293283 -0.4196652 -0.645666 -0.4257158 -0.6339413 -0.8661117 -0.3161472 -0.3871711 -0.2929126 -0.8320924 -0.4709824 0.1348783 -0.5140551 0.8470864 0.5817257 0 0.8133851 0.1205579 0.5069175 0.8535224 -0.03797942 0.9937609 -0.1048662 -0.434702 0.465377 -0.7710112 -0.6764448 -0.003134012 -0.7364867 -0.159886 -0.4695929 -0.8682851 0.03795498 -0.9944007 -0.09862345 0.04362124 -0.8882959 0.4571955 -0.04991292 0.8939275 0.4454237 -0.1170694 0.8323472 -0.54175 0.2136346 -0.8215205 -0.528644 -0.2729341 -2.82744e-7 0.9620327 0.1624788 0.4690006 -0.8681239 -0.1863172 0.002754807 -0.9824858 0.3499875 0.002404034 -0.9367514 0.441129 -0.4565937 -0.7726108 0.3001098 0.831575 -0.4673511 0.6884794 0.00548774 -0.7252352 -0.3782041 -0.8233116 0.4232254 -0.7422739 -0.392921 0.5428099 -0.7451556 0.4006151 0.5331517 -0.4148588 0.8339059 0.3639962 0.1068072 0.9936534 -0.03528779 0.6456651 0.4257156 -0.6339424 0.7480831 -0.4169436 -0.5162652 0.6308747 -0.721268 -0.2859538 0.09844231 -0.9951382 -0.003020286 0.6511374 0.7140368 -0.2572388 0.911952 -0.002414464 -0.4102901 -0.6648858 -0.7280222 0.1670653 0.8743309 0.3048462 -0.3776429 0.9215915 -0.3155192 -0.2260901 -0.8506317 0 0.5257622 0.9139714 0.3711133 -0.1641071 -0.0170257 0.8871056 0.4612525 -0.004414021 0.6414565 0.7671468 0.3516699 0.8072744 0.4739583 0.05109071 0.7567226 -0.6517367 0.3004511 0.5414423 -0.7852193 -0.2739377 0.5506352 -0.7885171 -0.1655709 0.2275982 0.9595757 -0.1044454 -0.09160172 0.9903031 0.1824293 0.08077836 0.9798952 0.4002972 0.819866 -0.409368 0.1006797 0.9847112 0.1421529 0.5062695 0.8592357 0.07352113 0.1032364 0.9714183 -0.2137489 0.1562206 0.3506872 0.9233708 0.3726781 0.5151659 0.7718259 -0.09359854 0.2771403 -0.9562597 0.153434 0.3648809 -0.9183246 0.2698355 0.09736698 -0.957971 0.75501 0.5901892 0.2857211 0.7891414 0.6048498 -0.10683 -0.2150971 0.05641627 -0.9749618 0.7040898 0.5381999 -0.4632477 0.5326094 0.3169478 -0.7847748 0.664608 0.5085983 0.5473793 0.4543365 0.01919203 0.8906235 0.5988804 0.2516264 0.7602806 0.7600107 0.1431632 -0.6339464 0.9136092 0.09001129 0.3965051 0.479197 -0.098369 -0.8721776 0.1587196 -0.2213498 -0.9621915 0.9206711 -0.1340601 -0.3665961 0.7180847 -0.288213 -0.6334727 0.7491221 -0.1356641 0.6483914 0.9282184 -0.3281416 0.1753107 0.9758539 0.1274768 -0.1773668 0.4165219 -0.4674791 -0.7797261 0.7040278 -0.5412644 0.4597585 0.8491272 -0.4855787 -0.2078374 0.170109 -0.2759784 0.9459909 0.4979885 -0.4066463 0.7659284 0.5059784 -0.6442571 -0.5735144 0.5993211 -0.7944648 0.09818345 0.1688816 -0.5758002 0.7999582 0.3501798 -0.8081883 0.4735038 0.5841305 -0.7639387 -0.2742068 0.2469574 -0.9001834 -0.3587226 0.01087832 -0.7573497 -0.6529189 0.2575809 -0.9625954 0.08403831 -0.002979159 -0.5091668 -0.8606627 -0.2348141 -0.2122368 -0.9485873 -0.1276932 -0.9727535 -0.1935074 0.04060733 -0.7736989 0.6322509 -0.08682405 -0.9742 0.208317 -0.2838461 -0.7594737 0.585347 -0.2307301 -0.4375304 0.8690977 -0.481194 -0.8572538 0.183217 -0.3792058 -0.8418958 -0.3839462 -0.4532944 -0.4979513 -0.7393029 -0.7135449 -0.5346324 -0.4527937 -0.5986061 -0.4423898 0.6678039 -0.7416698 -0.5505595 0.3831583 -0.7029809 -0.710612 -0.02912795 -0.4516716 -0.1613949 0.8774648 -0.810371 -0.1121784 0.5750781 -0.6346547 -0.09859609 -0.7664805 -0.9568375 -0.1594302 0.2429895 -0.9212985 -0.3788138 -0.0878027 -0.8734068 -0.1341539 -0.4681488 -0.9833625 0.1392368 -0.1166678 -0.7448253 0.157559 0.6483907 -0.8529488 0.2353954 -0.4659048 -0.5729472 0.2593589 -0.7774732 -0.927226 0.2576745 0.2717648 -0.4720366 0.143729 0.8697837 -0.700756 0.5436388 -0.4619501 -0.6200239 0.4842464 0.6173133 -0.7548117 0.5816545 0.303212 -0.7857534 0.6113071 -0.09431511 -0.3441723 0.8452334 -0.4088105 -0.3365073 0.5198854 0.7851638 -0.3565326 0.8173843 0.4525124 -0.3921005 0.9190717 0.03955537 -2.02897e-7 -0.008695304 -0.9999622 5.79707e-7 -0.008695304 0.9999622 0.7070806 -0.008695304 0.7070795 -0.7070796 -0.008695304 0.7070805 0.9649441 0.2383729 0.1098233</float_array>
          <technique_common>
            <accessor source="#GanondorfSword_LOD1-mesh-normals-array" count="366" stride="3">
              <param name="X" type="float"/>
              <param name="Y" type="float"/>
              <param name="Z" type="float"/>
            </accessor>
          </technique_common>
        </source>
        <source id="GanondorfSword_LOD1-mesh-map-0">
          <float_array id="GanondorfSword_LOD1-mesh-map-0-array" count="3612">0.2509136 0.3152241 0.2490864 0.3152241 0.25 0.3 0.2509136 0.3152241 0.2483119 0.3585786 0.2490864 0.3152241 0.251688 0.3585787 0.2483119 0.3585786 0.2509136 0.3152241 0.251688 0.3585787 0.2477945 0.4234632 0.2483119 0.3585786 0.2522054 0.4234634 0.2477945 0.4234632 0.251688 0.3585787 0.2522054 0.4234634 0.2476128 0.4999999 0.2477945 0.4234632 0.2523871 0.5000001 0.2476128 0.4999999 0.2522054 0.4234634 0.2523871 0.5000001 0.2477945 0.5765366 0.2476128 0.4999999 0.2522054 0.5765367 0.2477945 0.5765366 0.2523871 0.5000001 0.2522054 0.5765367 0.2483119 0.6414213 0.2477945 0.5765366 0.251688 0.6414214 0.2483119 0.6414213 0.2522054 0.5765367 0.251688 0.6414214 0.2490864 0.6847758 0.2483119 0.6414213 0.2509136 0.684776 0.2490864 0.6847758 0.251688 0.6414214 0.2509136 0.684776 0.25 0.7 0.2490864 0.6847758 0.7601373 0.03806018 0.7398627 0.03806024 0.75 0 0.7686704 0.1464465 0.7398627 0.03806024 0.7601373 0.03806018 0.7686704 0.1464465 0.7313295 0.1464468 0.7398627 0.03806024 0.7743157 0.3086581 0.7313295 0.1464468 0.7686704 0.1464465 0.7743157 0.3086581 0.7256843 0.3086585 0.7313295 0.1464468 0.7762842 0.4999998 0.7256843 0.3086585 0.7743157 0.3086581 0.7762842 0.4999998 0.7237158 0.5000002 0.7256843 0.3086585 0.7743157 0.6913415 0.7237158 0.5000002 0.7762842 0.4999998 0.7743157 0.6913415 0.7256843 0.6913418 0.7237158 0.5000002 0.7686705 0.8535532 0.7256843 0.6913418 0.7743157 0.6913415 0.7686705 0.8535532 0.7313296 0.8535535 0.7256843 0.6913418 0.7601373 0.9619396 0.7313296 0.8535535 0.7686705 0.8535532 0.7601373 0.9619396 0.7398627 0.9619398 0.7313296 0.8535535 0.75 1 0.7398627 0.9619398 0.7601373 0.9619396 0.2949821 0.9359245 0.7398628 0.9619399 0.75 1 0.7601373 0.9619397 0.2949821 0.9359245 0.75 1 0.2949821 0.06407552 0.7601373 0.03806018 0.75 0 0.7398628 0.03806024 0.2949821 0.06407552 0.75 0 0.2788304 0.6608911 0.7237158 0.5000002 0.7256844 0.6913418 0.2742578 0.7971795 0.7256844 0.6913418 0.7313297 0.8535535 0.2673278 0.8882152 0.7313297 0.8535535 0.7398628 0.9619399 0.7686705 0.8535532 0.2326728 0.888215 0.7601373 0.9619397 0.7743157 0.6913415 0.2257412 0.7971792 0.7686705 0.8535532 0.7762842 0.4999998 0.2211694 0.6608908 0.7743157 0.6913415 0.2211707 0.3391088 0.7762842 0.4999998 0.7743157 0.3086581 0.2257422 0.2028205 0.7743157 0.3086581 0.7686704 0.1464465 0.232672 0.1117848 0.7686704 0.1464465 0.7601373 0.03806018 0.7313296 0.1464468 0.2673276 0.1117848 0.7398628 0.03806024 0.7256844 0.3086584 0.274259 0.2028207 0.7313296 0.1464468 0.7237158 0.5000002 0.27883 0.3391092 0.7256844 0.3086584 0.25 0.8459827 0.2673278 0.8882152 0.2949821 0.9359245 0.2326728 0.888215 0.25 0.8459827 0.2949821 0.9359245 0.25 0.1540172 0.232672 0.1117848 0.2949821 0.06407552 0.2673276 0.1117848 0.25 0.1540172 0.2949821 0.06407552 0.2548401 0.6237839 0.2784557 0.5000002 0.2788304 0.6608911 0.2536995 0.7285716 0.2788304 0.6608911 0.2742578 0.7971795 0.2520009 0.7985479 0.2742578 0.7971795 0.2673278 0.8882152 0.2257412 0.7971792 0.2483128 0.7713481 0.2326728 0.888215 0.2211694 0.6608908 0.2463005 0.7285714 0.2257412 0.7971792 0.2215439 0.4999998 0.2451598 0.6237838 0.2211694 0.6608908 0.2451598 0.3762159 0.2215439 0.4999998 0.2211707 0.3391088 0.2463005 0.2714284 0.2211707 0.3391088 0.2257422 0.2028205 0.247999 0.2014521 0.2257422 0.2028205 0.232672 0.1117848 0.274259 0.2028207 0.2516871 0.228652 0.2673276 0.1117848 0.27883 0.3391092 0.2536995 0.2714286 0.274259 0.2028207 0.2784557 0.5000002 0.2548402 0.3762162 0.27883 0.3391092 0.25 0.7546487 0.2520009 0.7985479 0.25 0.8459827 0.2483128 0.7713481 0.25 0.7546487 0.25 0.8459827 0.25 0.2453513 0.247999 0.2014521 0.25 0.1540172 0.2516871 0.228652 0.25 0.2453513 0.25 0.1540172 0.252286 0.5426313 0.255186 0.5000001 0.2548401 0.6237839 0.2516881 0.6414226 0.2548401 0.6237839 0.2536995 0.7285716 0.2509136 0.6847775 0.2536995 0.7285716 0.2520009 0.7985479 0.2451598 0.6237838 0.2483119 0.6414225 0.2463005 0.7285714 0.244814 0.4999998 0.247714 0.5426309 0.2451598 0.6237838 0.2477945 0.4234632 0.244814 0.4999998 0.2451598 0.3762159 0.2483119 0.3585773 0.2451598 0.3762159 0.2463005 0.2714284 0.2490864 0.3152225 0.2463005 0.2714284 0.247999 0.2014521 0.2548402 0.3762162 0.2516881 0.3585774 0.2536995 0.2714286 0.255186 0.5000001 0.2522054 0.4234634 0.2548402 0.3762162 0.2483119 0.6414225 0.2494793 0.6913231 0.2483128 0.7713481 0.2516881 0.3585774 0.2505207 0.308677 0.2516871 0.228652 0.2494793 0.6913231 0.2509136 0.6847775 0.25 0.7546487 0.2505207 0.308677 0.2490864 0.3152225 0.25 0.2453513 0.7451931 0.03806024 0.7548069 0.03806018 0.75 0 0.7451931 0.03806024 0.7588755 0.1464465 0.7548069 0.03806018 0.7411245 0.1464468 0.7588755 0.1464465 0.7451931 0.03806024 0.7411245 0.1464468 0.7615879 0.3086581 0.7588755 0.1464465 0.7384121 0.3086585 0.7615879 0.3086581 0.7411245 0.1464468 0.7384121 0.3086585 0.7625389 0.4999998 0.7615879 0.3086581 0.7374612 0.5000002 0.7625389 0.4999998 0.7384121 0.3086585 0.7374612 0.5000002 0.7615879 0.6913415 0.7625389 0.4999998 0.7384121 0.6913418 0.7615879 0.6913415 0.7374612 0.5000002 0.7384121 0.6913418 0.7588755 0.8535532 0.7615879 0.6913415 0.7411245 0.8535535 0.7588755 0.8535532 0.7384121 0.6913418 0.7411245 0.8535535 0.7548069 0.9619396 0.7588755 0.8535532 0.7451931 0.9619398 0.7548069 0.9619396 0.7411245 0.8535535 0.7451931 0.9619398 0.75 1 0.7548069 0.9619396 0.7518851 0.09965211 0.7481149 0.09965217 0.75 0.0666666 0.7534828 0.193587 0.7481149 0.09965217 0.7518851 0.09965211 0.7534828 0.193587 0.7465172 0.1935872 0.7481149 0.09965217 0.75455 0.3341704 0.7465172 0.1935872 0.7534828 0.193587 0.75455 0.3341704 0.74545 0.3341707 0.7465172 0.1935872 0.7549247 0.4999998 0.74545 0.3341707 0.75455 0.3341704 0.7549247 0.4999998 0.7450754 0.5000002 0.74545 0.3341707 0.75455 0.6658293 0.7450754 0.5000002 0.7549247 0.4999998 0.75455 0.6658293 0.74545 0.6658295 0.7450754 0.5000002 0.7534828 0.8064128 0.74545 0.6658295 0.75455 0.6658293 0.7534828 0.8064128 0.7465172 0.8064131 0.74545 0.6658295 0.7518851 0.9003477 0.7465172 0.8064131 0.7534828 0.8064128 0.7518851 0.9003477 0.7481149 0.9003478 0.7465172 0.8064131 0.75 0.9333333 0.7481149 0.9003478 0.7518851 0.9003477 0.7625389 0.4999998 0.75455 0.6658293 0.7549247 0.4999998 0.7588755 0.1464465 0.75455 0.3341704 0.7534828 0.193587 0.7518851 0.09965211 0.7588755 0.1464465 0.7534828 0.193587 0.7615879 0.6913415 0.7534828 0.8064128 0.75455 0.6658293 0.7625389 0.4999998 0.7615879 0.6913415 0.75455 0.6658293 0.7384121 0.6913418 0.7450754 0.5000002 0.74545 0.6658295 0.7465172 0.8064131 0.7384121 0.6913418 0.74545 0.6658295 0.7451931 0.9619398 0.7465172 0.8064131 0.7481149 0.9003478 0.75 1 0.7451931 0.9619398 0.7481149 0.9003478 0.7548069 0.9619396 0.75 1 0.7518851 0.9003477 0.7588755 0.1464465 0.7615879 0.3086581 0.75455 0.3341704 0.7548069 0.03806018 0.7588755 0.1464465 0.7518851 0.09965211 0.75 0 0.7548069 0.03806018 0.7518851 0.09965211 0.7451931 0.03806024 0.75 0 0.7481149 0.09965217 0.7411245 0.1464468 0.7481149 0.09965217 0.7465172 0.1935872 0.7384121 0.3086585 0.7465172 0.1935872 0.74545 0.3341707 0.7374612 0.5000002 0.74545 0.3341707 0.7450754 0.5000002 0 0 1 0.5425378 0 1 1 0 0.5086515 1 0 0 0.5770689 0 1 1 0 1 0 0 1 1 0 1 1 0 0 1 0 0 1 0 0.5770737 1 0 0 1 0 0.6201277 1 0 0 0 0 1 1 0 1 0 0 1 1 0 1 0 0 1 1 0 1 1 0 0 1 0 0 1 0 0.5384947 1 0 0 1 0 0.6612643 1 0 0 0 0 1 1 0 1 0 0 1 1 0 1 1 0 0.5732725 1 0 0 0.6351064 0 1 1 0 1 0 0 1 1 0 1 1 0 0 1 0 0 1 0 0.6351044 1 0 0 1 0 0.6884514 1 0 0 0 0 1 1 0 1 0.365947 0 1 1 0 1 0 0 1 1 0 1 1 0 0 1 0 0 1 0 0 1 0 0 1 0 0.5564039 1 0 0 0.5369776 0 1 1 0 1 0.5265306 0 1 1 0 1 1 0 0.526531 1 0 0 1 0 0.5396134 1 0 0 1 0 0 1 0 0 1 0 0.4718701 1 0 0 0.3182839 0 1 1 0 1 0.4630224 0 1 1 0 1 1 0 0.4435952 1 0 0 1 0 0 1 0 0 1 0 0 1 0 0 1 0 0 1 0 0 1 0 0 1 0 0 0 0 1 1 0 1 0 0 1 1 0 1 0 0 1 1 0 1 0.5068821 0 1 1 0 1 0 0 1 1 0 1 1 0 0.4904124 1 0 0 0.4557302 0 1 1 0 1 1 0 0.429447 1 0 0 1 0 0.375968 1 0 0 0.3759678 0 1 1 0 1 0.4908178 0 1 1 0 1 0 0 1 1 0 1 1 0 0.4998855 1 0 0 1 0 0.4615045 1 0 0 1 0 0 1 0 0 1 0 0.4208956 1 0 0 1 0 0 1 0 0 0 0 1 1 0 1 0.4208952 0 1 1 0 1 0.5127782 0 1 1 0 1 0 0 1 1 0 1 1 0 0.5274179 1 0 0 0.4844766 0 1 1 0 1 1 0 0.4871916 1 0 0 0.4871917 0 1 1 0 1 0.4926134 0 1 1 0 1 0 0 1 0.5425378 0 1 0.5192524 0 1 1 0 1 0 0 1 1 0 1 0.5770683 0 1 1 0 1 0 0 1 1 0 1 1 0 0 1 0 0 1 0 0.5770663 1 0 0 1 0 0.4725804 1 0 0 1 0 0.6201277 1 0 0 0.5253971 0 1 1 0 1 1 0 0.5253897 1 0 0 1 0 0.5384947 1 0 0 1 0 0.6612643 1 0 0 0 0 1 1 0 1 0.5746224 0 1 1 0 1 0.6351069 0 1 1 0 1 0 0 1 1 0 1 1 0 0 1 0 0 1 0 0.635104 1 0 0 1 0 0.5095859 1 0 0 1 0 0.6884514 1 0 0 0 0 1 1 0 1 0.4931163 0 1 1 0 1 0 0 1 1 0 1 1 0 0.537711 1 0 0 1 0 0.5564039 1 0 0 0.5369776 0 1 1 0 1 0.5265306 0 1 1 0 1 1 0 0.526531 1 0 0 1 0 0.5396134 1 0 0 1 0 0 1 0 0 1 0 0.596468 1 0 0 0.4847252 0 1 1 0 1 0.4630224 0 1 1 0 1 1 0 0.4435952 1 0 0 1 0 0 1 0 0 1 0 0 1 0 0 0 0 1 1 0 1 0 0 1 1 0 1 0 0 1 1 0 1 0.5068828 0 1 1 0 1 0 0 1 1 0 1 1 0 0 1 0 0 1 0 0 1 0 0 1 0 0.3648924 1 0 0 0.6136888 0 1 1 0 1 1 0 0.429447 1 0 0 1 0 0.375968 1 0 0 0.4908183 0 1 1 0 1 0 0 1 1 0 1 1 0 0.4379643 1 0 0 1 0 0.4615045 1 0 0 1 0 0 1 0 0 0 0 1 1 0 1 0 0 1 1 0 1 0.5127789 0 1 1 0 1 0 0 1 1 0 1 1 0 0 1 0 0 1 0 0 1 0 0 1 0 0.4229344 1 0 0 0.4229339 0 1 1 0 1 0 0 1 1 0 1 1 0 0.4871917 1 0 0 0.4926129 0 1 1 0 1 0 0 1 0.3601641 0 1 1 0.4601581 0 1 0 0 0 0 1 0.5998268 1 1 1 0.6062944 0 1 0 0 0 0 1 0.5001537 0 1 1 0 0.4629893 1 0 0 0.447037 0 1 1 0 1 1 0.4910024 0 1 0 0 0 0 1 0.5288951 0 1 0.4629893 0 1 1 0 1 0.5644213 0 1 0 1 1 1 0 0.4998013 1 0 0 0 0 1 1 0 1 1 0.4505625 0 1 0 0 0.4488292 0 1 1 0 1 1 0 0 1 0 0 0 0 1 0.5850295 0 1 0 0 1 1 0 1 1 0 0.4078541 1 0 0 1 0.434543 0 1 0 0 1 0 0.5386938 1 0 0 0 0 1 0.4095442 0 1 0.5644213 0 1 0 1 1 1 0 0.4992949 1 0 0 0.500833 0 1 1 0 1 1 0 0.3742753 1 0 0 1 0.416751 0 1 0 0 1 0 0.5021885 1 0 0 1 0 0.4470037 1 0 0 1 0.4999741 0 1 0 0 0.6462767 0 1 1 0 1 1 0 0 1 0 0 0.4990128 0 1 1 0 1 0 0 1 0.5228001 0 1 0 0 1 0.5164009 0 1 1 0 0.5001914 1 0 0 0 0 1 0.5998268 1 0.5507301 0 0 1 0.500024 0 1 1 0 0 1 0 0 1 0 0.5511748 1 0 0 1 0 0 1 0 0 0 0 1 0.4786123 0 1 1 0 0 1 0 0 0.457054 0 1 1 0 1 0.5644213 0 1 0 1 1 1 0 0 1 0 0 0.4488395 0 1 1 0 1 1 0 0 1 0 0 1 0 0.4488447 1 0 0 0.5464345 0 1 0.5998268 0 1 1 0 0.6463038 1 0 0 1 0 0.4093431 1 0 0 1 0 0.5359168 1 0 0 0 0 1 0.3653273 0 1 0.6183467 0 1 1 0 1 1 0 0.4640813 1 0 0 0.5536277 0 1 1 0 1 1 0 0.4998058 1 0 0 1 0.5000137 0 1 0 0 1 0.5227942 0 1 0 0 1 0 0 1 0 0 0 0 1 1 0 1 0 0 1 0.4804229 0 1 0 0 1 0.3813515 0 1 1 0 0 1 0 0 1 0.4999904 0 1 0 0 0 0 1 1 0 1 0.5541769 0 1 1 0 1 1 0.4999759 0 1 0 0 1 0.4767593 0 1 0 0 1 0 0 1 0 0 0 0 1 0.3959577 0 1 1 0 0 1 0 0 1 0 0 1 0 0 0 0 1 1 0 1 0 0 1 0.5019736 0 1 1 0 0 1 0 0 0.4331349 0 1 1 0 1 1 0 0.410847 1 0 0 0.5013089 0 1 1 0 1 0 0 1 0.4034828 0 1 0.4991577 0 1 1 0 1 1 0.5398537 0 1 0 0 0 0 1 0.4671686 0 1 0 0 1 1 0 1 1 0 0 1 0 0 0.2788304 0.6608911 0.2784557 0.5000002 0.7237158 0.5000002 0.2742578 0.7971795 0.2788304 0.6608911 0.7256844 0.6913418 0.2673278 0.8882152 0.2742578 0.7971795 0.7313297 0.8535535 0.2949821 0.9359245 0.2673278 0.8882152 0.7398628 0.9619399 0.7601373 0.9619397 0.2326728 0.888215 0.2949821 0.9359245 0.7686705 0.8535532 0.2257412 0.7971792 0.2326728 0.888215 0.7743157 0.6913415 0.2211694 0.6608908 0.2257412 0.7971792 0.7762842 0.4999998 0.2215439 0.4999998 0.2211694 0.6608908 0.2211707 0.3391088 0.2215439 0.4999998 0.7762842 0.4999998 0.2257422 0.2028205 0.2211707 0.3391088 0.7743157 0.3086581 0.232672 0.1117848 0.2257422 0.2028205 0.7686704 0.1464465 0.2949821 0.06407552 0.232672 0.1117848 0.7601373 0.03806018 0.7398628 0.03806024 0.2673276 0.1117848 0.2949821 0.06407552 0.7313296 0.1464468 0.274259 0.2028207 0.2673276 0.1117848 0.7256844 0.3086584 0.27883 0.3391092 0.274259 0.2028207 0.7237158 0.5000002 0.2784557 0.5000002 0.27883 0.3391092 0.2548401 0.6237839 0.255186 0.5000001 0.2784557 0.5000002 0.2536995 0.7285716 0.2548401 0.6237839 0.2788304 0.6608911 0.2520009 0.7985479 0.2536995 0.7285716 0.2742578 0.7971795 0.25 0.8459827 0.2520009 0.7985479 0.2673278 0.8882152 0.2326728 0.888215 0.2483128 0.7713481 0.25 0.8459827 0.2257412 0.7971792 0.2463005 0.7285714 0.2483128 0.7713481 0.2211694 0.6608908 0.2451598 0.6237838 0.2463005 0.7285714 0.2215439 0.4999998 0.244814 0.4999998 0.2451598 0.6237838 0.2451598 0.3762159 0.244814 0.4999998 0.2215439 0.4999998 0.2463005 0.2714284 0.2451598 0.3762159 0.2211707 0.3391088 0.247999 0.2014521 0.2463005 0.2714284 0.2257422 0.2028205 0.25 0.1540172 0.247999 0.2014521 0.232672 0.1117848 0.2673276 0.1117848 0.2516871 0.228652 0.25 0.1540172 0.274259 0.2028207 0.2536995 0.2714286 0.2516871 0.228652 0.27883 0.3391092 0.2548402 0.3762162 0.2536995 0.2714286 0.2784557 0.5000002 0.255186 0.5000001 0.2548402 0.3762162 0.2516881 0.6414226 0.252286 0.5426313 0.2548401 0.6237839 0.2509136 0.6847775 0.2516881 0.6414226 0.2536995 0.7285716 0.25 0.7546487 0.2509136 0.6847775 0.2520009 0.7985479 0.2463005 0.7285714 0.2483119 0.6414225 0.2483128 0.7713481 0.2451598 0.6237838 0.247714 0.5426309 0.2483119 0.6414225 0.2477945 0.4234632 0.247714 0.5426309 0.244814 0.4999998 0.2483119 0.3585773 0.2477945 0.4234632 0.2451598 0.3762159 0.2490864 0.3152225 0.2483119 0.3585773 0.2463005 0.2714284 0.25 0.2453513 0.2490864 0.3152225 0.247999 0.2014521 0.2536995 0.2714286 0.2516881 0.3585774 0.2516871 0.228652 0.2548402 0.3762162 0.2522054 0.4234634 0.2516881 0.3585774 0.255186 0.5000001 0.252286 0.5426313 0.2522054 0.4234634 0.2483128 0.7713481 0.2494793 0.6913231 0.25 0.7546487 0.2516871 0.228652 0.2505207 0.308677 0.25 0.2453513 0.75455 0.3341704 0.7625389 0.4999998 0.7549247 0.4999998 0.75 0.0666666 0.75 0 0.7518851 0.09965211 0.7481149 0.09965217 0.75 0 0.75 0.0666666 0.75 0.9333333 0.75 1 0.7481149 0.9003478 0.7518851 0.9003477 0.75 1 0.75 0.9333333 0.7534828 0.8064128 0.7588755 0.8535532 0.7518851 0.9003477 0.7615879 0.6913415 0.7588755 0.8535532 0.7534828 0.8064128 0.7384121 0.6913418 0.7374612 0.5000002 0.7450754 0.5000002 0.7465172 0.8064131 0.7411245 0.8535535 0.7384121 0.6913418 0.7451931 0.9619398 0.7411245 0.8535535 0.7465172 0.8064131 0.7588755 0.8535532 0.7548069 0.9619396 0.7518851 0.9003477 0.75455 0.3341704 0.7615879 0.3086581 0.7625389 0.4999998 0.7411245 0.1464468 0.7451931 0.03806024 0.7481149 0.09965217 0.7384121 0.3086585 0.7411245 0.1464468 0.7465172 0.1935872 0.7374612 0.5000002 0.7384121 0.3086585 0.74545 0.3341707 0 0 1 0 0.5231207 1 0.510967 0 1 1 0 1 0.5086824 0 1 1 0 1 0 0 1 0 1 1 1 0 1 1 0 1 0.4725821 0 1 1 0 1 0 0.5425378 1 0 1 1 0 0 1 0 1 1 0 0 1 0 1 1 0 0 1 0 1 1 0 0 1 0 0.5624369 1 0.579105 0 1 1 0 1 1 0 1 1 0 1 0.5384947 0 1 1 0 1 0.5001148 0 1 1 0 1 0 0 1 0 1 1 0 0 1 0 1 1 0 0 1 0 0.5732713 1 0.6024176 0 1 1 0 1 0.5705515 0 1 1 0 1 0 0 1 0 1 1 1 0 1 1 0 1 0.5095874 0 1 1 0 1 0 0 1 0 1 1 0 0 1 0 0.365947 1 0 0 1 0 1 1 0 0 1 0 0.6039255 1 0.6039261 0 1 1 0 1 1 0 1 1 0 1 1 0 1 1 0 1 0.5564039 0 1 1 0 1 0 0 1 0 0.5152806 1 0.5281307 0 1 1 0 1 1 0 1 1 0 1 0 0 1 0 0.4630224 1 0.4435952 0 1 1 0 1 1 0 1 1 0 1 1 0 1 1 0 1 1 0 1 1 0 1 1 0 1 1 0 1 0 0 1 0 1 1 0 0 1 0 1 1 0 0 1 0 1 1 0 0 1 0 0.5068821 1 0 0 1 0 1 1 0.3115495 0 1 1 0 1 0 0 1 0 0.4253792 1 0.4267286 0 1 1 0 1 0 0 1 0 0.4267275 1 0 0 1 0 1 1 0.3387359 0 1 1 0 1 0.4615045 0 1 1 0 1 1 0 1 1 0 1 0.4208956 0 1 1 0 1 1 0 1 1 0 1 0 0 1 0 1 1 0 0 1 0 0.4208952 1 0 0 1 0 0.5127782 1 0 0 1 0 1 1 0.3798733 0 1 1 0 1 0 0 1 0 0.4807481 1 0.4913502 0 1 1 0 1 0 0 1 0 0.4913414 1 0 0 1 0 0.3514435 1 0 0 1 0 0.5073879 1 0.5086824 0 1 1 0 1 0 0 1 0 1 1 0 0 1 0 0.5770683 1 0 0 1 0 1 1 1 0 1 1 0 1 0.5770663 0 1 1 0 1 0.4725804 0 1 1 0 1 0 0.5425378 1 0 1 1 0 0 1 0 0.487221 1 0 0 1 0 0.5624371 1 0.5624372 0 1 1 0 1 0.5253897 0 1 1 0 1 0.5384947 0 1 1 0 1 0.5001134 0 1 1 0 1 0 0 1 0 1 1 0 0 1 0 0.5091801 1 0.5705515 0 1 1 0 1 0 0 1 0 0.3863104 1 0 0 1 0 1 1 1 0 1 1 0 1 0.635104 0 1 1 0 1 0.5095859 0 1 1 0 1 0 0 1 0 1 1 0 0 1 0 0.4931163 1 0 0 1 0 1 1 0 0 1 0 0.6039255 1 0.6039261 0 1 1 0 1 0.537711 0 1 1 0 1 0.5564039 0 1 1 0 1 0 0 1 0 0.5152807 1 0.5281306 0 1 1 0 1 1 0 1 1 0 1 0 0 1 0 0.4630224 1 0.4622819 0 1 1 0 1 1 0 1 1 0 1 1 0 1 1 0 1 0 0 1 0 1 1 0 0 1 0 1 1 0 0 1 0 1 1 0 0 1 0 0.5068828 1 0 0 1 0 1 1 0.3115495 0 1 1 0 1 1 0 1 1 0 1 1 0 1 1 0 1 0 0 1 0 0.4253792 1 0.4585589 0 1 1 0 1 0 0 1 0 1 1 0.3387359 0 1 1 0 1 0.4208948 0 1 1 0 1 1 0 1 1 0 1 0 0 1 0 1 1 0 0 1 0 1 1 0 0 1 0 0.4746038 1 0 0 1 0 1 1 0.3798733 0 1 1 0 1 1 0 1 1 0 1 1 0 1 1 0 1 0 0 1 0 1 1 0 0 1 0 0.4807479 1 0.494948 0 1 1 0 1 0 0 1 0 0.3514435 1 1 0 1 1 0 0.5611649 1 0 1 1 0 0.4398501 1 0 1 1 0 0.5907482 0 0 1 0 0.4978071 1 0 0.5001537 1 0 1 1 0.3312059 0 1 1 0 1 0 0 1 0 1 1 0 0 1 0 0.4106601 1 0 0.4708287 1 0 1 1 1 0 1 1 0 1 0 0 1 0 1 1 0 0 1 0 0.5004625 1 0.5369613 0 1 1 0 1 0 0 1 0 0.5517478 1 0.4978184 0 1 1 0 1 0.553591 0 1 1 0 1 0 0.5954309 1 0 1 1 1 0 1 1 0 0.3658326 0.5004625 0 1 1 0 1 0 0 1 0 0.4977483 1 0.4890198 0 1 1 0 1 0.499549 0 1 1 0 1 0 0.5358453 1 0 1 1 0.5300905 0 1 1 0 1 0.6382504 0 1 1 0 1 0 0.416751 1 0 1 1 0 0 1 0 0.5127426 1 0.4470037 0 1 1 0 1 1 0 1 1 0 1 1 0 1 1 0 0.5000169 1 0 1 1 0 0.5670998 1 0 1 1 0 1 1 0 1 1 0 1 0 0.4786123 1 0 1 1 1 0 1 1 0 0.5000206 1 0 1 1 0 1 0 0 1 0 0.4482445 1 1 0 1 1 0 1 0.5511748 0 1 1 0 1 0 0 1 0 0.4637566 1 0 0 1 0 0.4977489 1 1 0 1 1 0 1 0 0 1 0 0.5536277 1 0.447048 0 1 1 0 1 0 0.4641335 1 0 1 1 0 0.4999959 1 0 1 1 0.4618555 0 1 1 0 1 0.3316923 0 1 1 0 1 0 0.4836007 1 0 1 1 0 0.4345539 1 0 1 1 1 0 1 1 0 1 0 0 1 0 1 1 1 0 1 1 0 0.4092061 0 0.4804229 1 0 1 1 1 0 1 1 0 0.5000025 0 0.4669035 1 0 1 1 1 0 1 1 0 1 0 0 1 0 1 1 0 0.6220546 1 0 1 1 0 0 1 0 0.4106303 1 0 0.4767593 1 0 1 1 1 0 1 1 0 1 1 0 1 1 0 0.5654577 1 0 1 1 0 1 1 0 1 1 0 1 0 0 1 0 1 1 0.4024457 0 1 1 0 1 1 0 1 1 0 0.5398516 1 0 1 1 0 1 0 0.5889207 1 0 1 1 0 0 1 0 0.3078915 1 1 0 1 1 0 0.467128 1 0 1 1 0 0.4311228 0 0 1 0 0.3736246 1 0 0 1 0 1 1 1 0 1 1 0 1</float_array>
          <technique_common>
            <accessor source="#GanondorfSword_LOD1-mesh-map-0-array" count="1806" stride="2">
              <param name="S" type="float"/>
              <param name="T" type="float"/>
            </accessor>
          </technique_common>
        </source>
        <vertices id="GanondorfSword_LOD1-mesh-vertices">
          <input semantic="POSITION" source="#GanondorfSword_LOD1-mesh-positions"/>
        </vertices>
        <triangles material="Sheath-material" count="602">
          <input semantic="VERTEX" source="#GanondorfSword_LOD1-mesh-vertices" offset="0"/>
          <input semantic="NORMAL" source="#GanondorfSword_LOD1-mesh-normals" offset="1"/>
          <input semantic="TEXCOORD" source="#GanondorfSword_LOD1-mesh-map-0" offset="2" set="0"/>
          <p>12 0 0 10 1 1 11 2 2 12 0 3 9 3 4 10 1 5 13 4 6 9 3 7 12 0 8 13 4 9 8 5 10 9 3 11 14 6 12 8 5 13 13 4 14 14 6 15 7 7 16 8 5 17 15 8 18 7 7 19 14 6 20 15 8 21 6 9 22 7 7 23 0 10 24 6 9 25 15 8 26 0 10 27 5 11 28 6 9 29 1 12 30 5 11 31 0 10 32 1 12 33 4 13 34 5 11 35 2 14 36 4 13 37 1 12 38 2 14 39 3 15 40 4 13 41 26 16 42 28 17 43 27 18 44 25 19 45 28 17 46 26 16 47 25 19 48 29 20 49 28 17 50 24 21 51 29 20 52 25 19 53 24 21 54 30 22 55 29 20 56 23 23 57 30 22 58 24 21 59 23 23 60 31 24 61 30 22 62 22 25 63 31 24 64 23 23 65 22 25 66 16 26 67 31 24 68 21 27 69 16 26 70 22 25 71 21 27 72 17 28 73 16 26 74 20 29 75 17 28 76 21 27 77 20 29 78 18 30 79 17 28 80 19 31 81 18 30 82 20 29 83 48 32 84 34 33 85 35 34 86 36 35 87 48 32 88 35 34 89 49 36 90 42 37 91 43 38 92 44 39 93 49 36 94 43 38 95 50 40 96 47 41 97 32 42 98 51 43 99 32 42 100 33 44 101 52 45 102 33 44 103 34 33 104 37 46 105 53 47 106 36 35 107 38 48 108 54 49 109 37 46 110 39 50 111 55 51 112 38 48 113 57 52 114 39 50 115 40 53 116 58 54 117 40 53 118 41 55 119 59 56 120 41 55 121 42 37 122 45 57 123 60 58 124 44 39 125 46 59 126 61 60 127 45 57 128 47 41 129 62 61 130 46 59 131 64 62 132 52 45 133 48 32 134 53 47 135 64 62 136 48 32 137 65 63 138 59 56 139 49 36 140 60 58 141 65 63 142 49 36 143 66 64 144 63 65 145 50 40 146 67 66 147 50 40 148 51 43 149 68 67 150 51 43 151 52 45 152 54 49 153 69 68 154 53 47 155 55 51 156 70 69 157 54 49 158 56 70 159 71 71 160 55 51 161 73 72 162 56 70 163 57 52 164 74 73 165 57 52 166 58 54 167 75 74 168 58 54 169 59 56 170 61 60 171 76 75 172 60 58 173 62 61 174 77 76 175 61 60 176 63 65 177 78 77 178 62 61 179 80 78 180 68 67 181 64 62 182 69 68 183 80 78 184 64 62 185 81 79 186 75 74 187 65 63 188 76 75 189 81 79 190 65 63 191 82 80 192 79 81 193 66 64 194 83 82 195 66 64 196 67 66 197 84 83 198 67 66 199 68 67 200 71 71 201 85 84 202 70 69 203 72 85 204 86 86 205 71 71 206 87 87 207 72 85 208 73 72 209 88 88 210 73 72 211 74 73 212 89 89 213 74 73 214 75 74 215 78 77 216 90 90 217 77 76 218 79 81 219 91 91 220 78 77 221 85 84 222 92 92 223 69 68 224 90 90 225 93 93 226 76 75 227 92 92 228 84 83 229 80 78 230 93 93 231 89 89 232 81 79 233 106 94 234 104 95 235 105 96 236 106 94 237 103 97 238 104 95 239 107 98 240 103 97 241 106 94 242 107 98 243 102 99 244 103 97 245 108 100 246 102 99 247 107 98 248 108 100 249 101 101 250 102 99 251 109 102 252 101 101 253 108 100 254 109 102 255 100 103 256 101 101 257 94 104 258 100 103 259 109 102 260 94 104 261 99 105 262 100 103 263 95 106 264 99 105 265 94 104 266 95 106 267 98 107 268 99 105 269 96 108 270 98 107 271 95 106 272 96 108 273 97 109 274 98 107 275 120 31 276 122 110 277 121 31 278 119 111 279 122 110 280 120 31 281 119 111 282 123 112 283 122 110 284 118 113 285 123 112 286 119 111 287 118 113 288 124 114 289 123 112 290 117 115 291 124 114 292 118 113 293 117 115 294 125 116 295 124 114 296 116 117 297 125 116 298 117 115 299 116 117 300 110 118 301 125 116 302 115 119 303 110 118 304 116 117 305 115 119 306 111 120 307 110 118 308 114 121 309 111 120 310 115 119 311 114 121 312 112 122 313 111 120 314 113 31 315 112 122 316 114 121 317 142 123 318 132 124 319 133 125 320 143 126 321 134 127 322 135 128 323 136 129 324 143 126 325 135 128 326 147 130 327 131 131 328 132 124 329 142 123 330 147 130 331 132 124 332 148 132 333 141 133 334 126 134 335 127 135 336 148 132 337 126 134 338 150 136 339 127 135 340 128 137 341 145 138 342 150 136 343 128 137 344 151 139 345 145 138 346 130 140 347 143 126 348 152 141 349 134 127 350 153 142 351 143 126 352 136 129 353 144 143 354 153 142 355 136 129 356 154 144 357 144 143 358 138 145 359 155 146 360 138 145 361 139 147 362 156 148 363 139 147 364 140 149 365 157 150 366 140 149 367 141 133 368 278 151 369 164 152 370 158 153 371 174 154 372 168 155 373 159 156 374 167 157 375 176 158 376 160 159 377 160 159 378 177 160 379 161 161 380 177 160 381 162 162 382 161 161 383 178 163 384 174 154 385 162 162 386 171 164 387 164 152 388 163 165 389 164 152 390 173 166 391 165 167 392 165 167 393 181 168 394 166 169 395 166 169 396 182 170 397 167 157 398 184 171 399 169 172 400 168 155 401 185 173 402 171 164 403 169 172 404 179 174 405 170 175 406 171 164 407 170 175 408 180 176 409 172 177 410 172 177 411 187 178 412 173 166 413 183 179 414 184 171 415 174 154 416 182 170 417 196 180 418 176 158 419 176 158 420 188 181 421 177 160 422 188 181 423 178 163 424 177 160 425 198 182 426 183 179 427 178 163 428 189 183 429 175 184 430 179 174 431 175 184 432 190 185 433 180 176 434 187 178 435 194 186 436 181 168 437 181 168 438 195 187 439 182 170 440 199 188 441 184 171 442 183 179 443 200 189 444 185 173 445 184 171 446 191 190 447 189 183 448 185 173 449 190 185 450 193 191 451 187 178 452 196 180 453 197 192 454 188 181 455 197 192 456 198 182 457 188 181 458 201 193 459 186 194 460 189 183 461 192 195 462 190 185 463 186 194 464 203 196 465 193 191 466 190 185 467 200 189 468 204 197 469 191 190 470 201 193 471 192 195 472 186 194 473 202 198 474 203 196 475 192 195 476 210 199 477 194 186 478 193 191 479 211 200 480 195 187 481 194 186 482 205 201 483 196 180 484 195 187 485 212 202 486 197 192 487 196 180 488 197 192 489 214 203 490 198 182 491 198 182 492 206 204 493 199 188 494 199 188 495 215 205 496 200 189 497 204 197 498 207 206 499 201 193 500 201 193 501 202 198 502 192 195 503 209 207 504 210 199 505 203 196 506 215 205 507 219 208 508 204 197 509 208 209 510 209 207 511 202 198 512 220 210 513 212 202 514 205 201 515 214 203 516 221 211 517 206 204 518 219 208 519 216 212 520 207 206 521 207 206 522 208 209 523 202 198 524 218 213 525 210 199 526 209 207 527 217 214 528 218 213 529 208 209 530 224 215 531 211 200 532 210 199 533 225 216 534 220 210 535 211 200 536 226 217 537 213 218 538 212 202 539 213 218 540 228 219 541 214 203 542 221 211 543 229 220 544 215 205 545 219 208 546 222 221 547 216 212 548 216 212 549 217 214 550 208 209 551 223 222 552 224 215 553 218 213 554 229 220 555 234 223 556 219 208 557 232 224 558 226 217 559 220 210 560 228 219 561 233 225 562 221 211 563 234 223 564 230 226 565 222 221 566 217 214 567 231 227 568 223 222 569 231 227 570 239 228 571 224 215 572 224 215 573 246 229 574 225 216 575 232 224 576 240 230 577 226 217 578 226 217 579 241 231 580 227 232 581 241 231 582 228 219 583 227 232 584 242 233 585 233 225 586 228 219 587 243 234 588 234 223 589 229 220 590 236 235 591 231 227 592 230 226 593 246 229 594 247 236 595 232 224 596 248 237 597 243 234 598 233 225 599 249 238 600 236 235 601 234 223 602 244 239 603 235 240 604 236 235 605 235 240 606 245 241 607 237 242 608 245 241 609 251 243 610 239 228 611 247 236 612 258 244 613 240 230 614 240 230 615 252 245 616 241 231 617 252 245 618 242 233 619 241 231 620 260 246 621 248 237 622 242 233 623 262 247 624 249 238 625 243 234 626 253 248 627 238 249 628 244 239 629 238 249 630 254 250 631 245 241 632 251 243 633 267 251 634 246 229 635 246 229 636 257 252 637 247 236 638 261 253 639 262 247 640 248 237 641 255 254 642 253 248 643 249 238 644 254 250 645 266 255 646 251 243 647 258 244 648 259 256 649 252 245 650 259 256 651 260 246 652 252 245 653 263 257 654 250 258 655 253 248 656 256 259 657 254 250 658 250 258 659 265 260 660 266 255 661 254 250 662 262 247 663 268 261 664 255 254 665 263 257 666 256 259 667 250 258 668 264 262 669 265 260 670 256 259 671 269 263 672 258 244 673 257 252 674 273 264 675 259 256 676 258 244 677 259 256 678 275 265 679 260 246 680 260 246 681 276 266 682 261 253 683 261 253 684 282 267 685 262 247 686 268 261 687 270 268 688 263 257 689 263 257 690 264 262 691 256 259 692 272 269 693 266 255 694 265 260 695 280 270 696 267 251 697 266 255 698 281 271 699 269 263 700 267 251 701 282 267 702 283 272 703 268 261 704 271 273 705 272 269 706 264 262 707 284 274 708 273 264 709 269 263 710 283 272 711 277 275 712 270 268 713 270 268 714 271 273 715 264 262 716 279 276 717 280 270 718 272 269 719 278 151 720 279 276 721 271 273 722 160 159 723 274 277 724 273 264 725 274 277 726 162 162 727 275 265 728 275 265 729 159 156 730 276 266 731 283 272 732 285 278 733 277 275 734 277 275 735 278 151 736 271 273 737 158 153 738 280 270 739 279 276 740 165 167 741 281 271 742 280 270 743 166 169 744 284 274 745 281 271 746 159 156 747 168 155 748 282 267 749 282 267 750 169 172 751 283 272 752 167 157 753 160 159 754 284 274 755 169 172 756 163 165 757 285 278 758 368 279 759 286 280 760 290 281 761 289 282 762 296 283 763 366 284 764 350 285 765 302 286 766 312 287 767 292 288 768 296 283 769 289 282 770 287 289 771 290 281 772 291 290 773 287 289 774 291 290 775 288 291 776 288 291 777 291 290 778 292 288 779 294 292 780 295 293 781 286 280 782 367 294 783 293 295 784 308 296 785 291 290 786 298 297 787 299 298 788 357 299 789 367 294 790 308 296 791 291 290 792 299 298 793 292 288 794 296 283 795 300 300 796 301 301 797 295 293 798 297 302 799 290 281 800 290 281 801 297 302 802 298 297 803 296 283 804 308 296 805 293 295 806 294 292 807 312 287 808 309 303 809 295 293 810 309 303 811 303 304 812 300 300 813 307 305 814 301 301 815 303 304 816 305 306 817 297 302 818 297 302 819 305 306 820 298 297 821 301 301 822 307 305 823 316 307 824 357 299 825 308 296 826 326 308 827 311 309 828 315 310 829 307 305 830 305 306 831 310 311 832 313 312 833 305 306 834 313 312 835 306 313 836 315 310 837 319 314 838 316 307 839 310 311 840 318 315 841 313 312 842 313 312 843 314 316 844 311 309 845 312 287 846 327 317 847 309 303 848 309 303 849 327 317 850 317 318 851 314 316 852 322 319 853 315 310 854 315 310 855 322 319 856 319 314 857 316 307 858 319 314 859 326 308 860 313 312 861 318 315 862 320 320 863 313 312 864 320 320 865 314 316 866 312 287 867 302 286 868 327 317 869 317 318 870 327 317 871 328 321 872 317 318 873 323 322 874 318 315 875 321 323 876 325 324 877 322 319 878 322 319 879 332 325 880 319 314 881 320 320 882 323 322 883 324 326 884 320 320 885 325 324 886 321 323 887 326 308 888 336 327 889 339 328 890 357 299 891 326 308 892 339 328 893 324 326 894 331 329 895 325 324 896 323 322 897 329 330 898 330 331 899 328 321 900 333 332 901 329 330 902 329 330 903 333 332 904 330 331 905 327 317 906 302 286 907 337 333 908 330 331 909 334 334 910 331 329 911 335 335 912 343 336 913 332 325 914 335 335 915 342 337 916 343 336 917 333 332 918 337 333 919 340 338 920 333 332 921 340 338 922 341 339 923 333 332 924 341 339 925 334 334 926 334 334 927 341 339 928 338 340 929 334 334 930 338 340 931 335 335 932 302 286 933 345 341 934 337 333 935 345 341 936 346 342 937 340 338 938 342 337 939 349 343 940 343 336 941 341 339 942 346 342 943 347 344 944 342 337 945 344 345 946 348 346 947 344 345 948 347 344 949 353 347 950 345 341 951 351 348 952 346 342 953 349 343 954 357 299 955 339 328 956 349 343 957 354 349 958 356 350 959 346 342 960 351 348 961 352 351 962 350 285 963 355 352 964 345 341 965 353 347 966 354 349 967 348 346 968 353 347 969 361 353 970 354 349 971 351 348 972 355 352 973 358 354 974 351 348 975 359 355 976 352 351 977 352 351 978 360 356 979 353 347 980 357 299 981 366 284 982 367 294 983 356 350 984 361 353 985 366 284 986 360 356 987 365 357 988 361 353 989 358 354 990 362 358 991 363 359 992 358 354 993 363 359 994 359 355 995 359 355 996 363 359 997 364 360 998 362 358 999 350 285 1000 286 280 1001 365 357 1002 288 291 1003 289 282 1004 286 280 1005 368 279 1006 363 359 1007 367 294 1008 366 284 1009 293 295 1010 364 360 1011 368 279 1012 287 289 1013 364 360 1014 288 291 1015 365 357 1016 50 40 1017 63 65 1018 47 41 1019 51 43 1020 50 40 1021 32 42 1022 52 45 1023 51 43 1024 33 44 1025 48 32 1026 52 45 1027 34 33 1028 36 35 1029 53 47 1030 48 32 1031 37 46 1032 54 49 1033 53 47 1034 38 48 1035 55 51 1036 54 49 1037 39 50 1038 56 70 1039 55 51 1040 57 52 1041 56 70 1042 39 50 1043 58 54 1044 57 52 1045 40 53 1046 59 56 1047 58 54 1048 41 55 1049 49 36 1050 59 56 1051 42 37 1052 44 39 1053 60 58 1054 49 36 1055 45 57 1056 61 60 1057 60 58 1058 46 59 1059 62 61 1060 61 60 1061 47 41 1062 63 65 1063 62 61 1064 66 64 1065 79 81 1066 63 65 1067 67 66 1068 66 64 1069 50 40 1070 68 67 1071 67 66 1072 51 43 1073 64 62 1074 68 67 1075 52 45 1076 53 47 1077 69 68 1078 64 62 1079 54 49 1080 70 69 1081 69 68 1082 55 51 1083 71 71 1084 70 69 1085 56 70 1086 72 85 1087 71 71 1088 73 72 1089 72 85 1090 56 70 1091 74 73 1092 73 72 1093 57 52 1094 75 74 1095 74 73 1096 58 54 1097 65 63 1098 75 74 1099 59 56 1100 60 58 1101 76 75 1102 65 63 1103 61 60 1104 77 76 1105 76 75 1106 62 61 1107 78 77 1108 77 76 1109 63 65 1110 79 81 1111 78 77 1112 83 82 1113 82 80 1114 66 64 1115 84 83 1116 83 82 1117 67 66 1118 80 78 1119 84 83 1120 68 67 1121 70 69 1122 85 84 1123 69 68 1124 71 71 1125 86 86 1126 85 84 1127 87 87 1128 86 86 1129 72 85 1130 88 88 1131 87 87 1132 73 72 1133 89 89 1134 88 88 1135 74 73 1136 81 79 1137 89 89 1138 75 74 1139 77 76 1140 90 90 1141 76 75 1142 78 77 1143 91 91 1144 90 90 1145 79 81 1146 82 80 1147 91 91 1148 69 68 1149 92 92 1150 80 78 1151 76 75 1152 93 93 1153 81 79 1154 134 127 1155 142 123 1156 133 125 1157 137 361 1158 144 143 1159 136 129 1160 138 145 1161 144 143 1162 137 361 1163 129 362 1164 145 138 1165 128 137 1166 130 140 1167 145 138 1168 129 362 1169 131 131 1170 146 363 1171 130 140 1172 147 130 1173 146 363 1174 131 131 1175 148 132 1176 157 150 1177 141 133 1178 127 135 1179 149 364 1180 148 132 1181 150 136 1182 149 364 1183 127 135 1184 146 363 1185 151 139 1186 130 140 1187 134 127 1188 152 141 1189 142 123 1190 155 146 1191 154 144 1192 138 145 1193 156 148 1194 155 146 1195 139 147 1196 157 150 1197 156 148 1198 140 149 1199 158 153 1200 164 152 1201 165 167 1202 162 162 1203 174 154 1204 159 156 1205 163 165 1206 164 152 1207 278 151 1208 160 159 1209 176 158 1210 177 160 1211 177 160 1212 178 163 1213 162 162 1214 169 172 1215 171 164 1216 163 165 1217 164 152 1218 170 175 1219 172 177 1220 164 152 1221 172 177 1222 173 166 1223 165 167 1224 173 166 1225 181 168 1226 166 169 1227 181 168 1228 182 170 1229 167 157 1230 182 170 1231 176 158 1232 174 154 1233 184 171 1234 168 155 1235 184 171 1236 185 173 1237 169 172 1238 171 164 1239 170 175 1240 164 152 1241 185 173 1242 179 174 1243 171 164 1244 170 175 1245 175 184 1246 180 176 1247 172 177 1248 180 176 1249 187 178 1250 173 166 1251 187 178 1252 181 168 1253 178 163 1254 183 179 1255 174 154 1256 179 174 1257 175 184 1258 170 175 1259 176 158 1260 196 180 1261 188 181 1262 188 181 1263 198 182 1264 178 163 1265 185 173 1266 189 183 1267 179 174 1268 175 184 1269 186 194 1270 190 185 1271 180 176 1272 190 185 1273 187 178 1274 181 168 1275 194 186 1276 195 187 1277 182 170 1278 195 187 1279 196 180 1280 198 182 1281 199 188 1282 183 179 1283 199 188 1284 200 189 1285 184 171 1286 200 189 1287 191 190 1288 185 173 1289 189 183 1290 186 194 1291 175 184 1292 187 178 1293 193 191 1294 194 186 1295 191 190 1296 201 193 1297 189 183 1298 192 195 1299 203 196 1300 190 185 1301 191 190 1302 204 197 1303 201 193 1304 203 196 1305 210 199 1306 193 191 1307 210 199 1308 211 200 1309 194 186 1310 211 200 1311 205 201 1312 195 187 1313 205 201 1314 212 202 1315 196 180 1316 212 202 1317 213 218 1318 197 192 1319 197 192 1320 213 218 1321 214 203 1322 198 182 1323 214 203 1324 206 204 1325 199 188 1326 206 204 1327 215 205 1328 200 189 1329 215 205 1330 204 197 1331 201 193 1332 207 206 1333 202 198 1334 202 198 1335 209 207 1336 203 196 1337 204 197 1338 219 208 1339 207 206 1340 211 200 1341 220 210 1342 205 201 1343 206 204 1344 221 211 1345 215 205 1346 207 206 1347 216 212 1348 208 209 1349 208 209 1350 218 213 1351 209 207 1352 218 213 1353 224 215 1354 210 199 1355 224 215 1356 225 216 1357 211 200 1358 220 210 1359 226 217 1360 212 202 1361 226 217 1362 227 232 1363 213 218 1364 213 218 1365 227 232 1366 228 219 1367 214 203 1368 228 219 1369 221 211 1370 215 205 1371 229 220 1372 219 208 1373 216 212 1374 222 221 1375 217 214 1376 217 214 1377 223 222 1378 218 213 1379 219 208 1380 234 223 1381 222 221 1382 225 216 1383 232 224 1384 220 210 1385 221 211 1386 233 225 1387 229 220 1388 222 221 1389 230 226 1390 217 214 1391 223 222 1392 231 227 1393 224 215 1394 230 226 1395 231 227 1396 217 214 1397 224 215 1398 239 228 1399 246 229 1400 225 216 1401 246 229 1402 232 224 1403 226 217 1404 240 230 1405 241 231 1406 241 231 1407 242 233 1408 228 219 1409 233 225 1410 243 234 1411 229 220 1412 234 223 1413 236 235 1414 230 226 1415 231 227 1416 235 240 1417 237 242 1418 231 227 1419 237 242 1420 239 228 1421 232 224 1422 247 236 1423 240 230 1424 242 233 1425 248 237 1426 233 225 1427 243 234 1428 249 238 1429 234 223 1430 236 235 1431 235 240 1432 231 227 1433 249 238 1434 244 239 1435 236 235 1436 235 240 1437 238 249 1438 245 241 1439 237 242 1440 245 241 1441 239 228 1442 244 239 1443 238 249 1444 235 240 1445 239 228 1446 251 243 1447 246 229 1448 240 230 1449 258 244 1450 252 245 1451 252 245 1452 260 246 1453 242 233 1454 248 237 1455 262 247 1456 243 234 1457 249 238 1458 253 248 1459 244 239 1460 238 249 1461 250 258 1462 254 250 1463 245 241 1464 254 250 1465 251 243 1466 246 229 1467 267 251 1468 257 252 1469 247 236 1470 257 252 1471 258 244 1472 260 246 1473 261 253 1474 248 237 1475 262 247 1476 255 254 1477 249 238 1478 253 248 1479 250 258 1480 238 249 1481 251 243 1482 266 255 1483 267 251 1484 255 254 1485 263 257 1486 253 248 1487 256 259 1488 265 260 1489 254 250 1490 255 254 1491 268 261 1492 263 257 1493 267 251 1494 269 263 1495 257 252 1496 269 263 1497 273 264 1498 258 244 1499 273 264 1500 274 277 1501 259 256 1502 259 256 1503 274 277 1504 275 265 1505 260 246 1506 275 265 1507 276 266 1508 261 253 1509 276 266 1510 282 267 1511 262 247 1512 282 267 1513 268 261 1514 263 257 1515 270 268 1516 264 262 1517 264 262 1518 272 269 1519 265 260 1520 272 269 1521 280 270 1522 266 255 1523 280 270 1524 281 271 1525 267 251 1526 268 261 1527 283 272 1528 270 268 1529 281 271 1530 284 274 1531 269 263 1532 270 268 1533 277 275 1534 271 273 1535 271 273 1536 279 276 1537 272 269 1538 284 274 1539 160 159 1540 273 264 1541 160 159 1542 161 161 1543 274 277 1544 274 277 1545 161 161 1546 162 162 1547 275 265 1548 162 162 1549 159 156 1550 276 266 1551 159 156 1552 282 267 1553 277 275 1554 285 278 1555 278 151 1556 278 151 1557 158 153 1558 279 276 1559 158 153 1560 165 167 1561 280 270 1562 165 167 1563 166 169 1564 281 271 1565 282 267 1566 168 155 1567 169 172 1568 283 272 1569 169 172 1570 285 278 1571 166 169 1572 167 157 1573 284 274 1574 285 278 1575 163 165 1576 278 151 1577 366 284 1578 296 283 1579 293 295 1580 368 279 1581 290 281 1582 287 289 1583 350 285 1584 312 287 1585 294 292 1586 289 282 1587 288 291 1588 292 288 1589 290 281 1590 286 280 1591 295 293 1592 292 288 1593 299 298 1594 300 300 1595 296 283 1596 292 288 1597 300 300 1598 291 290 1599 290 281 1600 298 297 1601 297 302 1602 295 293 1603 303 304 1604 296 283 1605 301 301 1606 308 296 1607 295 293 1608 294 292 1609 309 303 1610 299 298 1611 298 297 1612 304 365 1613 299 298 1614 304 365 1615 306 313 1616 300 300 1617 299 298 1618 306 313 1619 300 300 1620 306 313 1621 307 305 1622 298 297 1623 305 306 1624 304 365 1625 305 306 1626 303 304 1627 310 311 1628 301 301 1629 316 307 1630 308 296 1631 304 365 1632 305 306 1633 306 313 1634 307 305 1635 306 313 1636 311 309 1637 303 304 1638 309 303 1639 310 311 1640 306 313 1641 313 312 1642 311 309 1643 316 307 1644 307 305 1645 315 310 1646 308 296 1647 316 307 1648 326 308 1649 310 311 1650 317 318 1651 318 315 1652 315 310 1653 311 309 1654 314 316 1655 310 311 1656 309 303 1657 317 318 1658 314 316 1659 320 320 1660 321 323 1661 314 316 1662 321 323 1663 322 319 1664 319 314 1665 336 327 1666 326 308 1667 318 315 1668 323 322 1669 320 320 1670 317 318 1671 328 321 1672 323 322 1673 322 319 1674 325 324 1675 332 325 1676 323 322 1677 328 321 1678 329 330 1679 319 314 1680 332 325 1681 336 327 1682 320 320 1683 324 326 1684 325 324 1685 324 326 1686 323 322 1687 330 331 1688 324 326 1689 330 331 1690 331 329 1691 325 324 1692 331 329 1693 332 325 1694 328 321 1695 327 317 1696 337 333 1697 332 325 1698 331 329 1699 335 335 1700 328 321 1701 337 333 1702 333 332 1703 330 331 1704 333 332 1705 334 334 1706 331 329 1707 334 334 1708 335 335 1709 336 327 1710 332 325 1711 343 336 1712 339 328 1713 336 327 1714 343 336 1715 335 335 1716 338 340 1717 342 337 1718 338 340 1719 341 339 1720 344 345 1721 342 337 1722 338 340 1723 344 345 1724 340 338 1725 337 333 1726 345 341 1727 342 337 1728 348 346 1729 349 343 1730 341 339 1731 340 338 1732 346 342 1733 343 336 1734 349 343 1735 339 328 1736 344 345 1737 341 339 1738 347 344 1739 302 286 1740 350 285 1741 345 341 1742 348 346 1743 344 345 1744 353 347 1745 345 341 1746 355 352 1747 351 348 1748 349 343 1749 348 346 1750 354 349 1751 357 299 1752 349 343 1753 356 350 1754 347 344 1755 346 342 1756 352 351 1757 353 347 1758 347 344 1759 352 351 1760 353 347 1761 360 356 1762 361 353 1763 354 349 1764 361 353 1765 356 350 1766 351 348 1767 358 354 1768 359 355 1769 352 351 1770 359 355 1771 360 356 1772 357 299 1773 356 350 1774 366 284 1775 355 352 1776 350 285 1777 362 358 1778 355 352 1779 362 358 1780 358 354 1781 360 356 1782 364 360 1783 365 357 1784 366 284 1785 361 353 1786 365 357 1787 360 356 1788 359 355 1789 364 360 1790 362 358 1791 286 280 1792 363 359 1793 350 285 1794 294 292 1795 286 280 1796 366 284 1797 365 357 1798 289 282 1799 364 360 1800 363 359 1801 368 279 1802 364 360 1803 287 289 1804 288 291 1805</p>
        </triangles>
      </mesh>
    </geometry>
  </library_geometries>
  <library_visual_scenes>
    <visual_scene id="Scene" name="Scene">
      <node id="GanondorfSword_LOD1" name="GanondorfSword_LOD1" type="NODE">
        <matrix sid="transform">1 0 0 0 0 1 0 0 0 0 1 0 0 0 0 1</matrix>
        <instance_geometry url="#GanondorfSword_LOD1-mesh" name="GanondorfSword_LOD1">
          <bind_material>
            <technique_common>
              <instance_material symbol="Sheath-material" target="#Sheath-material">
                <bind_vertex_input semantic="UVMap" input_semantic="TEXCOORD" input_set="0"/>
              </instance_material>
              <instance_material symbol="Gold-material" target="#Gold-material">
                <bind_vertex_input semantic="UVMap" input_semantic="TEXCOORD" input_set="0"/>
              </instance_material>
              <instance_material symbol="Gem-material" target="#Gem-material">
                <bind_vertex_input semantic="UVMap" input_semantic="TEXCOORD" input_set="0"/>
              </instance_material>
            </technique_common>
          </bind_material>
        </instance_geometry>
      </node>
    </visual_scene>
  </library_visual_scenes>
  <scene>
    <instance_visual_scene url="#Scene"/>
  </scene>
</COLLADA>