<?xml version="1.0" encoding="utf-8"?>
<COLLADA xmlns="http://www.collada.org/2005/11/COLLADASchema" version="1.4.1" xmlns:xsi="http://www.w3.org/2001/XMLSchema-instance">
  <asset>
    <contributor>
      <author>Blender User</author>
      <authoring_tool>Blender 3.6.19 commit date:2024-12-16, commit time:12:51, hash:56679ff9b2b2</authoring_tool>
    </contributor>
    <created>2026-07-11T11:34:58</created>
    <modified>2026-07-11T11:34:58</modified>
    <unit name="meter" meter="1"/>
    <up_axis>Z_UP</up_axis>
  </asset>
  <library_effects>
    <effect id="Sheath-effect">
      <profile_COMMON>
        <technique sid="common">
          <lambert>
            <emission>
              <color sid="emission">0 0 0 1</color>
            </emission>
            <diffuse>
              <color sid="diffuse">0.14 0.11 0.09 1</color>
            </diffuse>
            <reflectivity>
              <float sid="specular">0.5</float>
            </reflectivity>
          </lambert>
        </technique>
      </profile_COMMON>
    </effect>
    <effect id="Gold-effect">
      <profile_COMMON>
        <technique sid="common">
          <lambert>
            <emission>
              <color sid="emission">0 0 0 1</color>
            </emission>
            <diffuse>
              <color sid="diffuse">0.85 0.65 0.2 1</color>
            </diffuse>
            <reflectivity>
              <float sid="specular">0.5</float>
            </reflectivity>
          </lambert>
        </technique>
      </profile_COMMON>
    </effect>
    <effect id="Gem-effect">
      <profile_COMMON>
        <technique sid="common">
          <lambert>
            <emission>
              <color sid="emission">0 0 0 1</color>
            </emission>
            <diffuse>
              <color sid="diffuse">0.6 0.06 0.1 1</color>
            </diffuse>
            <reflectivity>
              <float sid="specular">0.5</float>
            </reflectivity>
          </lambert>
        </technique>
      </profile_COMMON>
    </effect>
  </library_effects>
  <library_images/>
  <library_materials>
    <material id="Sheath-material" name="Sheath">
      <instance_effect url="#Sheath-effect"/>
    </material>
    <material id="Gold-material" name="Gold">
      <instance_effect url="#Gold-effect"/>
    </material>
    <material id="Gem-material" name="Gem">
      <instance_effect url="#Gem-effect"/>
    </material>
  </library_materials>
  <library_geometries>
    <geometry id="GanondorfSword_LOD0-mesh" name="GanondorfSword_LOD0">
      <mesh>
        <source id="GanondorfSword_LOD0-mesh-positions">
          <float_array id="GanondorfSword_LOD0-mesh-positions-array" count="489">-0.005391001 0.8000001 0.002535402 -0.002787947 0.8000001 0.01052486 0 0.8 0.01199996 0.002787947 0.8000001 0.01052486 0.005391001 0.8000001 0.002535402 0.004463493 0.8000001 -0.007169902 8.57957e-4 0.8000001 -0.01198494 -0.002066493 0.8 -0.01108652 -0.004463493 0.8000001 -0.007169902 -0.0134775 -0.18 0.006338596 -0.009545922 -0.18 0.02121317 -0.005166172 -0.18 0.02771633 0 -0.18 0.02999997 0.005166232 -0.18 0.02771633 0.009545922 -0.18 0.02121317 0.0134775 -0.18 0.006338536 0.01247233 -0.18 -0.01148051 0.009545922 -0.18 -0.02121317 0.005166172 -0.18 -0.02771633 0 -0.18 -0.02999997 -0.005166232 -0.18 -0.02771633 -0.009545922 -0.18 -0.02121317 -0.01247233 -0.18 -0.01148045 -0.01350891 -0.18 0.006346821 -0.006935358 -0.18 0.02640384 0.00264877 -0.1800004 0.02974826 0.0111435 -0.18 0.0180422 0.01350891 -0.18 -0.006346762 0.006935358 -0.18 -0.02640384 -0.00264877 -0.1800004 -0.02974826 -0.0111435 -0.18 -0.0180422 0 0.213439 0.02657949 0 0.2134392 -0.02657949 -0.01046574 0.4598535 0.004921913 -0.007500886 0.4436926 0.01668173 -0.004056394 0.4439849 0.02178585 0.00442177 0.2846034 0.02372872 0.008691847 0.4558632 0.01396095 0.01046574 0.4598535 -0.004921913 0.007500886 0.4436927 -0.01668173 0.004056394 0.4439848 -0.02178585 -0.00442177 0.284603 -0.02372872 -0.008691847 0.4558631 -0.01396095 0.001035451 0.6699187 0.01789075 -0.001035451 0.6699187 -0.01789075 -0.002907514 0.8000095 0.01082843 0.006009697 0.8000024 -0.003242552 4.77774e-4 0.800011 -0.01269 -0.006009697 0.8000024 -0.003242552 0.002702534 0.799993 0.01107507 -0.01385819 -0.1899999 0.005740225 -0.01060658 -0.1899999 0.01060658 -0.005740225 -0.1899999 0.01385819 0 -0.1899999 0.01499998 0.005740225 -0.1899999 0.01385813 0.01060658 -0.1899999 0.01060658 0.01497656 -0.1899999 0.00297898 0.01385813 -0.1899999 -0.005740225 0.01060658 -0.1899999 -0.01060658 0.005740225 -0.1899999 -0.01385819 0 -0.1899999 -0.01499998 -0.005740225 -0.1899999 -0.01385813 -0.01060658 -0.1899999 -0.01060658 -0.01497656 -0.1899999 -0.00297898 -0.01297968 -0.42 0.002581775 -0.009192347 -0.42 0.009192347 -0.002581775 -0.42 0.01297968 0.007352352 -0.42 0.01100361 0.01201039 -0.42 0.004974842 0.01297968 -0.42 -0.002581775 0.007352352 -0.42 -0.01100361 -0.002581775 -0.42 -0.01297968 -0.01100361 -0.42 -0.007352352 -0.0129739 -0.4199998 0.002580642 -0.0053218 -0.4199994 0.01252669 0.00729382 -0.4199998 0.0110346 0.01369595 -0.4200001 -1.04991e-4 0.007040858 -0.4199997 -0.01119035 -0.002911448 -0.4199998 -0.01290518 -0.01102042 -0.4199998 -0.00732702 0.002768099 -0.1899996 0.01500016 0.01466363 -0.1899994 0.005673706 -0.01499027 -0.1899999 0.002981722 -0.008420586 -0.1899998 0.01273769 0.01234674 -0.1899994 -0.008925974 1.13386e-4 -0.189998 -0.01554059 -0.01265412 -0.1899998 -0.008545637 0.01339387 -0.1664981 -0.003575026 0.01174741 -0.1782236 -0.002427816 0.02090454 -0.1842334 -0.007590055 0.01987063 -0.178249 0.02322578 0.01095449 -0.1666063 0.0159623 0.01314944 -0.1670866 0.03530484 0.008719623 -0.1816938 0.01760405 0.01767247 -0.1641348 0.01609969 0.01029062 -0.1859649 0.03199177 0.006146073 -0.1780886 0.04410052 -0.007244646 -0.1776175 0.04306989 0.001037836 -0.1779523 0.02343869 -0.002662122 -0.1843324 0.02861827 -6.03506e-4 -0.1670379 0.02676528 -0.004548966 -0.1668108 0.04194504 -0.009621024 -0.1854246 0.03589046 -0.01220059 -0.1858613 0.02186697 -0.007167816 -0.1781001 0.01875698 -0.006853342 -0.1639301 0.03380244 -0.022623 -0.171101 0.006542921 -0.01659786 -0.1673797 0.02852421 -0.009762465 -0.1668863 0.01884239 -0.02046465 -0.1839104 0.01052302 -0.01174741 -0.1782236 0.002427816 -0.0135712 -0.1666284 -8.72899e-5 -0.01852005 -0.1640737 -0.003329038 -0.01647704 -0.1859084 0.001834332 -0.01987063 -0.178249 -0.02322578 -0.008915245 -0.1781538 -0.0154947 -0.009300768 -0.1666457 -0.0197103 -0.01478421 -0.1643764 -0.02700138 -0.01353287 -0.1864158 -0.02243471 -0.001307308 -0.1664646 -0.04255145 -0.006146073 -0.1780886 -0.04410052 -0.001037836 -0.1779523 -0.02343869 -0.001114666 -0.1698609 -0.02465629 -0.001544952 -0.1639492 -0.03187417 0.008559703 -0.1833143 -0.03924638 -0.003615677 -0.1859518 -0.0366528 0.002662122 -0.1843324 -0.02861827 0.006678164 -0.1714862 -0.04355108 0.007167816 -0.1781001 -0.01875698 0.008245646 -0.166687 -0.02126133 0.01698666 -0.1718088 -0.02974462 0.022623 -0.171101 -0.006542921 0.01446706 -0.1859596 -0.02355718 0.01428407 -0.1640655 -0.02411037 0.0165224 -0.1857026 -0.005402386 0.002786159 -0.4191666 0.01321935 0.004730105 -0.4147611 -0.001101434 0.005443572 -0.4182767 -0.01075589 0.001032471 -0.4344616 0.02071613 0.01802927 -0.427417 0.007804811 0.01877832 -0.4264829 -0.004978716 0.009633541 -0.4281005 -0.01729148 0.009626924 -0.429659 0.01755231 0.01727199 -0.4394192 -0.01031625 0.01464837 -0.4498426 -0.002287447 0.01648026 -0.4426038 0.0109905 0.01003098 -0.4495823 -0.01148319 0.006274878 -0.4372445 -0.01936817 0.004498958 -0.4499748 0.01349943 -0.002859532 -0.4559208 -0.002384722 -1.28597e-5 -0.4475099 -0.01632535 -0.004819631 -0.4480879 0.01544243 -0.01417851 -0.4489758 0.006977677 -0.01210802 -0.4454296 -0.01309919 -0.01965075 -0.4412297 0.001208901 -0.01955449 -0.4338591 -0.006832063 -0.01339507 -0.4350687 0.01606446 -0.01300227 -0.4332882 -0.01568704 -0.01465517 -0.4252913 0.01188582 -0.01574933 -0.4229151 -0.005614876 -0.008206665 -0.4165353 0.004738628 -0.005983591 -0.4197727 -0.01309567 -0.003926992 -0.4341821 -0.02016264</float_array>
          <technique_common>
            <accessor source="#GanondorfSword_LOD0-mesh-positions-array" count="163" stride="3">
              <param name="X" type="float"/>
              <param name="Y" type="float"/>
              <param name="Z" type="float"/>
            </accessor>
          </technique_common>
        </source>
        <source id="GanondorfSword_LOD0-mesh-normals">
          <float_array id="GanondorfSword_LOD0-mesh-normals-array" count="489">-5.74461e-6 1 0 -2.47698e-6 1 2.58888e-6 -1.65697e-5 1 0 0 1 -4.71657e-6 0 1 -4.03888e-6 0 1 -9.61579e-6 0 1 1.16133e-5 0 1 1.16133e-5 0 1 5.66147e-5 0 -1 -7.12601e-6 0 -1 1.18506e-6 0 -1 9.86765e-6 0 -1 -1.78125e-6 0 -1 1.13397e-6 0 -1 -1.03588e-6 0 -1 1.80584e-7 0 -1 -1.63881e-6 0 -1 -1.7917e-7 0 -1 -1.03891e-6 0 -1 3.46773e-7 0 -1 2.79523e-7 0 -1 1.45301e-6 0 -1 0 -0.05376183 0.01076811 0.9984958 -0.7134771 0.005260646 0.7006588 0.2987449 0.006192028 0.954313 0.05376189 0.01076811 -0.9984958 0.7134776 0.005260646 -0.7006584 -0.2987453 0.006192028 -0.9543128 -0.9109666 0.01077479 0.4123395 -0.9939615 0.004324495 0.1096444 0.9350951 0.004665553 0.3543661 0.6408904 0.01264363 0.7675284 0.9939616 0.004324495 -0.1096442 0.9266055 0.01265829 0.375822 0.9107704 0.01119142 -0.4127616 -0.9350954 0.004665553 -0.3543656 -0.6408904 0.01264369 -0.7675284 -0.9265325 0.0122649 -0.3760147 0.1778799 0.03281629 0.9835048 -0.5097309 0.01837116 0.8601378 -0.2324133 0.03584897 -0.9719563 0.5101218 0.01913613 -0.8598893 -0.6518005 0.04381501 0.7571238 -0.9962163 0.01143866 0.0861532 0.9964247 0.0107764 -0.08379673 0.9884855 0.02207702 -0.149697 0.03908365 0.05087882 -0.9979399 -0.9820607 0.02667206 -0.1866691 0.6128829 0.04596745 0.7888356 0 1 3.91743e-6 0 1 6.15e-6 0 1 -3.55236e-5 0 1 -8.39459e-7 0 1 1.23591e-6 0 1 -1.60695e-6 0 1 -1.20435e-7 0 1 3.4333e-7 0 1 2.43911e-7 0 1 -2.71049e-7 0 1 1.17926e-6 0 1 -6.34219e-6 0 1 1.15832e-5 0 1 0 0 -1 -2.13966e-6 0 -1 -1.19962e-6 0 -1 -1.28379e-5 4.13925e-7 -1 2.28343e-7 -3.77189e-7 -1 -1.77952e-6 1.09316e-6 -1 0 7.41659e-7 -1 0 -2.24582e-6 -1 -6.20767e-6 -1.16186e-6 -1 9.18707e-6 0.8156574 -0.001681208 -0.5785329 0.999797 -0.01749503 -0.009993433 0.5645735 -0.01525419 -0.8252418 0.9306432 -0.00126487 0.3659257 0.5504723 -0.0169602 0.8346812 -0.390142 -0.01299685 0.9206631 -0.9805022 -0.01061731 0.1962211 -0.9734843 -0.008932948 0.2285794 0.2299494 -0.002981483 0.9731981 -0.5575094 -0.008272767 0.8301295 -0.003210544 -0.003605663 -0.9999884 -0.8059841 -0.006540358 -0.5919012 -0.2158816 -0.0116955 -0.9763495 -0.8356531 -0.008986592 -0.5491842 0.9576822 0.2797988 -0.06751024 0.942941 -0.1945518 0.2702075 0.7919038 -0.6065218 -0.07084995 -0.6653409 0.6580399 -0.3525693 0.6032867 0.7906381 0.1045783 -0.8476545 0.5255445 0.07269865 -0.2307361 -0.9710388 0.06200349 -0.7934539 -0.4633011 -0.3946936 -0.980094 -0.1980145 0.01435554 0.6308587 0.5796541 0.5157698 0.3837531 -0.8822098 0.2728359 -0.2291178 -0.174206 -0.9576833 -0.1643322 0.6591426 -0.7338434 0.05850523 -0.928856 -0.3657921 -0.168334 0.9709405 0.1701124 0.3699551 -0.2458426 0.8959324 -0.4678057 -0.7715663 0.4310955 -0.2079167 0.6202069 0.7563823 -0.4736716 -0.2056331 0.8563587 0.1508645 -0.9783232 -0.1418581 0.7948876 0.4767283 -0.3753451 -0.8135872 0.4564685 0.3601561 0.7667912 -0.2956221 -0.5697709 -0.9737475 0.215192 0.07421737 -0.7962025 -0.5896533 0.1355386 0.7911648 0.6111183 -0.02434974 -0.3928874 0.9174655 -0.06242227 0.178996 -0.9834346 -0.02857917 0.9722664 -0.2242094 -0.06654572 -0.9288709 -0.1903735 -0.3177371 -0.2170577 -0.9761568 -0.001948773 0.8886272 -0.2619436 0.3764669 -0.5643643 0.7890378 -0.2427183 0.5697523 0.733595 0.3704331 -0.4358511 -0.2286313 -0.870495 -0.1984505 -0.9027841 -0.3815738 0.1453644 -0.2979326 0.943454 -0.128181 0.6812649 -0.7207273 0.4854782 -0.6119537 -0.6243585 0.4672461 0.2487003 -0.8484275 -0.5359462 0.6980646 0.4748342 0.09378403 0.4779075 0.8733894 0.007809996 0.9988142 0.04805469 0.5730853 -0.7844134 -0.2372108 -0.1757551 -0.8679155 0.4645783 0.8902719 0.1474946 -0.4308843 -0.8158135 -0.1037118 0.5689395 0.3975395 0.9091821 -0.1238968 0.2850067 0.8010606 -0.5263775 0.4499975 0.3465209 -0.8230587 -0.2876949 0.7231195 -0.6279569 0.02732855 0.02048236 0.9994167 0.4707805 0.2448646 0.847589 0.1342039 0.7542049 0.6427787 -0.1923421 0.05824488 -0.979598 0.3165763 -0.1421119 -0.9378612 0.2527856 0.9673562 -0.01792758 0.8631572 0.3705957 0.3429557 0.8972138 0.3893825 -0.2082997 0.790706 -0.3555572 0.4983604 0.8736688 -0.1872519 -0.4490429 0.4497114 -0.6971846 -0.558295 0.7085842 -0.7049885 -0.02999597 0.252995 -0.738041 0.6255311 -0.1391105 -0.9858458 -0.09357613 -0.03815013 -0.6107283 -0.7909207 -0.2320562 -0.62544 0.7449663 -0.5944882 -0.538309 -0.5973334 -0.6346638 -0.01826989 0.7725724 -0.6686488 -0.6810317 0.2985039 -0.9582322 -0.2798469 0.05896449 -0.9567517 0.0623095 -0.2841547 -0.697415 0.4571248 0.5519505 -0.7747005 0.5867146 -0.2358078 -0.6298648 0.102752 -0.7698782 -0.3901821 0.8983476 0.2018156</float_array>
          <technique_common>
            <accessor source="#GanondorfSword_LOD0-mesh-normals-array" count="163" stride="3">
              <param name="X" type="float"/>
              <param name="Y" type="float"/>
              <param name="Z" type="float"/>
            </accessor>
          </technique_common>
        </source>
        <source id="GanondorfSword_LOD0-mesh-map-0">
          <float_array id="GanondorfSword_LOD0-mesh-map-0-array" count="1446">0.2509136 0.3152241 0.2481279 0.3816488 0.2496802 0.3053284 0.251872 0.381649 0.2481279 0.3816488 0.2509136 0.3152241 0.251872 0.381649 0.2477124 0.5419345 0.2481279 0.3816488 0.2522876 0.5419348 0.2477124 0.5419345 0.251872 0.381649 0.2522876 0.5419348 0.2488718 0.6727645 0.2477124 0.5419345 0.2511281 0.6727646 0.2488718 0.6727645 0.2522876 0.5419348 0.2511281 0.6727646 0.25 0.7 0.2488718 0.6727645 0.7601373 0.03806018 0.7398627 0.03806024 0.75 0 0.7686704 0.1464465 0.7398627 0.03806024 0.7601373 0.03806018 0.7686704 0.1464465 0.7313295 0.1464468 0.7398627 0.03806024 0.7743157 0.3086581 0.7313295 0.1464468 0.7686704 0.1464465 0.7743157 0.3086581 0.7256843 0.3086585 0.7313295 0.1464468 0.7752056 0.6048362 0.7256843 0.3086585 0.7743157 0.3086581 0.7752056 0.6048362 0.7247943 0.604837 0.7256843 0.3086585 0.7686705 0.8535532 0.7247943 0.604837 0.7752056 0.6048362 0.7686705 0.8535532 0.7313296 0.8535535 0.7247943 0.604837 0.7601373 0.9619396 0.7313296 0.8535535 0.7686705 0.8535532 0.7601373 0.9619396 0.7398627 0.9619398 0.7313296 0.8535535 0.75 1 0.7398627 0.9619398 0.7601373 0.9619396 0.2949821 0.9359245 0.7375608 0.9327002 0.7545594 0.9828816 0.2949821 0.06407552 0.7624393 0.06729972 0.7454406 0.01711839 0.2638502 0.7624469 0.7247924 0.6046466 0.7375608 0.9327002 0.7706328 0.7971693 0.2326728 0.888215 0.7545594 0.9828816 0.7752076 0.3953534 0.2354379 0.7322769 0.7706328 0.7971693 0.2361498 0.237553 0.7752076 0.3953534 0.7624393 0.06729972 0.7293674 0.2028308 0.2673276 0.1117848 0.7454406 0.01711839 0.7247924 0.6046466 0.2645621 0.2677246 0.7293674 0.2028308 0.2509874 0.7945304 0.2595682 0.8428186 0.2949821 0.9359245 0.2326728 0.888215 0.2509874 0.7945304 0.2949821 0.9359245 0.2490125 0.205469 0.2404317 0.1571813 0.2949821 0.06407552 0.2673276 0.1117848 0.2490125 0.205469 0.2949821 0.06407552 0.2354379 0.7322769 0.2509874 0.7945304 0.2326728 0.888215 0.2645621 0.2677246 0.2490125 0.205469 0.2673276 0.1117848 0.2511258 0.6728971 0.2666543 0.4891415 0.2638502 0.7624469 0.2511258 0.6728971 0.2638502 0.7624469 0.2595682 0.8428186 0.2333455 0.5108583 0.2479544 0.4493323 0.2354379 0.7322769 0.2479544 0.4493323 0.2333455 0.5108583 0.2361498 0.237553 0.249832 0.3118196 0.2361498 0.237553 0.2404317 0.1571813 0.2666543 0.4891415 0.2520455 0.4493326 0.2645621 0.2677246 0.2520455 0.4493326 0.249832 0.3118196 0.2490125 0.205469 0.2490645 0.6735907 0.2511258 0.6728971 0.2509874 0.7945304 0.7451931 0.03806024 0.7548069 0.03806018 0.75 0 0.7451931 0.03806024 0.7588755 0.1464465 0.7548069 0.03806018 0.7411245 0.1464468 0.7588755 0.1464465 0.7451931 0.03806024 0.7411245 0.1464468 0.7615879 0.3086581 0.7588755 0.1464465 0.7379366 0.4043292 0.7615879 0.3086581 0.7411245 0.1464468 0.7379366 0.4043292 0.7620634 0.5956706 0.7615879 0.3086581 0.7384121 0.6913418 0.7620634 0.5956706 0.7379366 0.4043292 0.7384121 0.6913418 0.7588755 0.8535532 0.7620634 0.5956706 0.7411245 0.8535535 0.7588755 0.8535532 0.7384121 0.6913418 0.7411245 0.8535535 0.7548069 0.9619396 0.7588755 0.8535532 0.7451931 0.9619398 0.7548069 0.9619396 0.7411245 0.8535535 0.7451931 0.9619398 0.75 1 0.7548069 0.9619396 0.7526839 0.1466195 0.7459836 0.2638791 0.7490574 0.08315944 0.7547373 0.4170851 0.7459836 0.2638791 0.7526839 0.1466195 0.7547373 0.4170851 0.7452628 0.582915 0.7459836 0.2638791 0.75455 0.6658293 0.7452628 0.582915 0.7547373 0.4170851 0.752684 0.8533802 0.7452628 0.582915 0.75455 0.6658293 0.752684 0.8533802 0.7465172 0.8064131 0.7452628 0.582915 0.752684 0.8533802 0.7490574 0.9168406 0.7465172 0.8064131 0.7599712 0.2119709 0.754661 0.4988067 0.7525697 0.1399019 0.761086 0.6725712 0.7526632 0.8546008 0.754661 0.4988067 0.7481881 0.8794687 0.7379366 0.5956712 0.7452626 0.582915 0.7522298 0.9823449 0.7432111 0.9091394 0.7481881 0.8794687 0.7500512 0.02234768 0.7599712 0.2119709 0.7525697 0.1399019 0.7398031 0.2254683 0.7489319 0.08535635 0.7459772 0.2647218 0.7379366 0.5956712 0.7459772 0.2647218 0.7452626 0.582915 0 0 1 0.5425378 0 1 1 0 0.5086515 1 0 0 0.5770689 0 1 1 0 1 1 0 0 1 0 0 1 0 0.6201277 1 0 0 0.5606768 0 1 1 0 1 0 0 1 0.2915385 0 1 1 0 0 1 0 0 1 0 0.6351044 1 0 0 0 0 1 1 0 1 1 0 0 1 0 0 0.5369776 0 1 1 0 1 1 0 0.5396134 1 0 0 1 0 0.4718701 1 0 0 0.4630224 0 1 1 0 1 1 0 0.3339226 1 0 0 0 0 1 1 0 1 0.4557302 0 1 1 0 1 1 0 0.429447 1 0 0 1 0 0.375968 1 0 0 0 0 1 0.477544 0 1 1 0 0.4615045 1 0 0 1 0 0 1 0 0 0 0 1 1 0 1 0.4208952 0 1 1 0 1 1 0 0.4871916 1 0 0 0 0 1 0.5425378 0 1 0.5192524 0 1 1 0 1 0 0 1 0.5479928 0 1 0.5770683 0 1 1 0 1 1 0 0 1 0 0 1 0 0.6201277 1 0 0 1 0 0.5253897 1 0 0 0.5746224 0 1 1 0 1 0.6351069 0 1 1 0 1 1 0 0 1 0 0 1 0 0.6884514 1 0 0 0.5369776 0 1 1 0 1 1 0 0.5396134 1 0 0 0 0 1 1 0 1 0 0 1 0.5879792 0 1 1 0.6198329 0 1 0 0 1 0 0.3648924 1 0 0 1 0 0.429447 1 0 0 1 0 0.375968 1 0 0 0.4908183 0 1 1 0 1 1 0 0.4379643 1 0 0 1 0 0.4615045 1 0 0 0 0 1 1 0 1 0.5127789 0 1 1 0 1 0.4229339 0 1 1 0 1 1 0.4601581 0 1 0.4982824 0 1 0.4910024 0 1 0 0 0 0 1 0.5288951 0 1 0.4629893 0 1 1 0 1 1 0 0.4998013 1 0 0 1 0.4505625 0 1 0 0 1 0 0.3742753 1 0 0 1 0.416751 0.3442897 1 0 0.3810377 1 0 0.4470037 1 0 0 0.6462767 0 1 1 0 1 1 0 0.5029359 1 0 0 0 0 1 0.500024 0 1 0 0 1 0.4786123 0 1 0.457054 0 1 1 0 1 1 0 0.4488447 1 0 0 1 0 0.4093431 1 0 0 1 0.5000137 0 1 0 0 0.3842096 0 1 1 0 1 0 0 1 0.4804229 0 1 1 0.6525047 0 1 0 0 0 0 1 0.5019736 0 1 0 0 1 0.4034828 0 1 0.4991577 0 1 1 0 1 0 0 1 0.4671686 0 1 0.4335869 0 1 1 0 1 1 0 0.5531987 1 0 0 0.2638502 0.7624469 0.2666543 0.4891415 0.7247924 0.6046466 0.2595682 0.8428186 0.2638502 0.7624469 0.7375608 0.9327002 0.2949821 0.9359245 0.2595682 0.8428186 0.7375608 0.9327002 0.7545594 0.9828816 0.2326728 0.888215 0.2949821 0.9359245 0.7706328 0.7971693 0.2354379 0.7322769 0.2326728 0.888215 0.7752076 0.3953534 0.2333455 0.5108583 0.2354379 0.7322769 0.2361498 0.237553 0.2333455 0.5108583 0.7752076 0.3953534 0.2404317 0.1571813 0.2361498 0.237553 0.7624393 0.06729972 0.2949821 0.06407552 0.2404317 0.1571813 0.7624393 0.06729972 0.7454406 0.01711839 0.2673276 0.1117848 0.2949821 0.06407552 0.7293674 0.2028308 0.2645621 0.2677246 0.2673276 0.1117848 0.7247924 0.6046466 0.2666543 0.4891415 0.2645621 0.2677246 0.2511258 0.6728971 0.2520455 0.4493326 0.2666543 0.4891415 0.2509874 0.7945304 0.2511258 0.6728971 0.2595682 0.8428186 0.2354379 0.7322769 0.2490645 0.6735907 0.2509874 0.7945304 0.2354379 0.7322769 0.2479544 0.4493323 0.2490645 0.6735907 0.249832 0.3118196 0.2479544 0.4493323 0.2361498 0.237553 0.2490125 0.205469 0.249832 0.3118196 0.2404317 0.1571813 0.2645621 0.2677246 0.2520455 0.4493326 0.2490125 0.205469 0.7489319 0.08535635 0.7500512 0.02234768 0.7525697 0.1399019 0.7526632 0.8546008 0.7522298 0.9823449 0.7481881 0.8794687 0.7481881 0.8794687 0.7432111 0.9091394 0.7379366 0.5956712 0.761086 0.6725712 0.7522298 0.9823449 0.7526632 0.8546008 0.754661 0.4988067 0.7599712 0.2119709 0.761086 0.6725712 0.7398031 0.2254683 0.7500512 0.02234768 0.7489319 0.08535635 0.7379366 0.5956712 0.7398031 0.2254683 0.7459772 0.2647218 1 0 1 1 0 1 0.4725821 0 1 1 0 1 0 0.17794 1 0 1 1 0 0 1 0 0.6062321 1 0.5705515 0 1 1 0 1 1 0 1 1 0 1 0 0 1 0 1 1 0 0 1 0 0.6039255 1 1 0 1 1 0 0.8940289 1 0 1 1 0 1 0.3339226 0 1 1 0 1 0 0 1 0 1 1 0 0 1 0 0.4267275 1 0.3387359 0 1 1 0 1 1 0 1 1 0 1 0.4208956 0 1 1 0 1 0 0 1 0 1 1 0 0 1 0 0.5127782 1 0 0 1 0 0.4807481 1 0 0 1 0 0.4913414 1 1 0 1 1 0 1 0.5770663 0 1 1 0 1 0.4725804 0 1 1 0 1 0 0 1 0 0.5624371 1 0 0 1 0 0.5091801 1 0.5705515 0 1 1 0 1 1 0 1 1 0 1 0.635104 0 1 1 0 1 0 0.1479557 1 0 1 1 0 0 1 0 0.6039255 1 0.6039261 0 1 1 0 1 0.537711 0 1 1 0 1 1 0 1 1 0 0.5287964 0.3339226 0 1 1 0 1 0 0 1 0 1 1 0 0.594529 1 0 1 1 0 0 1 0 0.5068828 1 0 0 1 0 0.4253792 1 0.4585589 0 1 1 0 1 0.3387359 0 1 1 0 1 0.4208948 0 1 1 0 1 0 0 1 0 1 1 0 0 1 0 0.4746038 1 1 0 1 1 0 0.6198329 0 0 1 0 0.4807479 1 0 0.5373235 1 0 1 1 0 0 1 0 0.4106601 1 0 0.5954309 1 0 0.442304 1 0 0 1 0 0.4977483 1 0.499549 0 1 1 0 1 0 0.5358453 1 0 1 1 1 0 1 1 0 0.5000169 1 0 1 1 0 0.5670998 1 0 1 1 0 0.3876279 0.5511748 0 1 1 0 1 0 0 1 0.5743864 0.4637566 1 0 0 1 0 0.5536277 1 0 0.4999959 1 0 1 1 0.4618555 0 1 1 0 1 0 0.4836007 1 0 1 1 0 0.4345539 1 0 1 1 0.4387989 0 1 1 0 1 1 0 1 1 0 0.4092061 0 0 1 0 0.4106303 1 0 0.4767593 1 0 1 1 1 0 1 1 0 0.5654577 0 0.4438256 1 0 1 1 0.4024457 0 1 0.5743864 0 1 0.5255692 0 1 1 0 1 0 0 1 0 0.3078915 1 0.5637437 0 1 1 0 0.467128</float_array>
          <technique_common>
            <accessor source="#GanondorfSword_LOD0-mesh-map-0-array" count="723" stride="2">
              <param name="S" type="float"/>
              <param name="T" type="float"/>
            </accessor>
          </technique_common>
        </source>
        <vertices id="GanondorfSword_LOD0-mesh-vertices">
          <input semantic="POSITION" source="#GanondorfSword_LOD0-mesh-positions"/>
        </vertices>
        <triangles material="Sheath-material" count="241">
          <input semantic="VERTEX" source="#GanondorfSword_LOD0-mesh-vertices" offset="0"/>
          <input semantic="NORMAL" source="#GanondorfSword_LOD0-mesh-normals" offset="1"/>
          <input semantic="TEXCOORD" source="#GanondorfSword_LOD0-mesh-map-0" offset="2" set="0"/>
          <p>7 0 0 5 1 1 6 2 2 8 3 3 5 1 4 7 0 5 8 3 6 4 4 7 5 1 8 0 5 9 4 4 10 8 3 11 0 5 12 3 6 13 4 4 14 1 7 15 3 6 16 0 5 17 1 7 18 2 8 19 3 6 20 18 9 21 20 10 22 19 11 23 17 12 24 20 10 25 18 9 26 17 12 27 21 13 28 20 10 29 16 14 30 21 13 31 17 12 32 16 14 33 22 15 34 21 13 35 15 16 36 22 15 37 16 14 38 15 16 39 9 17 40 22 15 41 14 18 42 9 17 43 15 16 44 14 18 45 10 19 46 9 17 47 13 20 48 10 19 49 14 18 50 13 20 51 11 21 52 10 19 53 12 22 54 11 21 55 13 20 56 31 23 57 24 24 58 25 25 59 32 26 60 28 27 61 29 28 62 34 29 63 23 30 64 24 24 65 26 31 66 36 32 67 25 25 68 27 33 69 37 34 70 26 31 71 39 35 72 27 33 73 28 27 74 30 36 75 41 37 76 29 28 77 23 30 78 42 38 79 30 36 80 43 39 81 35 40 82 31 23 83 36 32 84 43 39 85 31 23 86 44 41 87 40 42 88 32 26 89 41 37 90 44 41 91 32 26 92 37 34 93 43 39 94 36 32 95 42 38 96 44 41 97 41 37 98 45 43 99 33 44 100 34 29 101 45 43 102 34 29 103 35 40 104 38 45 105 46 46 106 37 34 107 46 46 108 38 45 109 39 35 110 47 47 111 39 35 112 40 42 113 33 44 114 48 48 115 42 38 116 48 48 117 47 47 118 44 41 119 49 49 120 45 43 121 43 39 122 61 50 123 59 51 124 60 52 125 61 50 126 58 53 127 59 51 128 62 54 129 58 53 130 61 50 131 62 54 132 57 55 133 58 53 134 63 56 135 57 55 136 62 54 137 63 56 138 56 57 139 57 55 140 50 58 141 56 57 142 63 56 143 50 58 144 55 59 145 56 57 146 51 60 147 55 59 148 50 58 149 51 60 150 54 61 151 55 59 152 52 62 153 54 61 154 51 60 155 52 62 156 53 63 157 54 61 158 70 64 159 72 65 160 71 66 161 69 67 162 72 65 163 70 64 164 69 67 165 64 68 166 72 65 167 68 69 168 64 68 169 69 67 170 67 70 171 64 68 172 68 69 173 67 70 174 65 71 175 64 68 176 67 70 177 66 72 178 65 71 179 84 73 180 76 74 181 77 75 182 81 76 183 75 77 184 76 74 185 74 78 186 82 79 187 73 80 188 80 81 189 83 82 190 74 78 191 85 83 192 84 73 193 77 75 194 86 84 195 78 85 196 79 86 197 82 79 198 79 86 199 73 80 200 131 87 201 90 88 202 89 89 203 91 90 204 94 91 205 87 92 206 134 93 207 93 94 208 88 95 209 93 94 210 87 92 211 88 95 212 92 96 213 90 88 214 131 87 215 90 88 216 95 97 217 89 89 218 89 89 219 95 97 220 134 93 221 98 98 222 91 90 223 93 94 224 100 99 225 94 91 226 91 90 227 95 97 228 99 100 229 93 94 230 105 101 231 92 96 232 94 91 233 96 102 234 102 103 235 95 97 236 101 104 237 96 102 238 92 96 239 97 105 240 102 103 241 96 102 242 101 104 243 97 105 244 96 102 245 103 106 246 99 100 247 102 103 248 98 98 249 108 107 250 100 99 251 105 101 252 107 108 253 101 104 254 107 108 255 102 103 256 97 105 257 103 106 258 104 109 259 99 100 260 101 104 261 107 108 262 97 105 263 106 110 264 109 111 265 107 108 266 109 111 267 103 106 268 102 103 269 104 109 270 111 112 271 108 107 272 108 107 273 112 113 274 105 101 275 113 114 276 110 115 277 103 106 278 106 110 279 114 116 280 109 111 281 114 116 282 118 117 283 109 111 284 109 111 285 118 117 286 113 114 287 113 114 288 115 118 289 110 115 290 115 118 291 111 112 292 110 115 293 117 119 294 114 116 295 106 110 296 116 120 297 117 119 298 111 112 299 120 121 300 125 122 301 118 117 302 118 117 303 121 123 304 115 118 305 121 123 306 116 120 307 115 118 308 119 124 309 120 121 310 117 119 311 120 121 312 124 125 313 125 122 314 127 126 315 120 121 316 119 124 317 121 123 318 129 127 319 122 128 320 122 128 321 129 127 322 123 129 323 132 130 324 125 122 325 124 125 326 132 130 327 126 131 328 125 122 329 130 132 330 124 125 331 127 126 332 134 93 333 128 133 334 126 131 335 133 134 336 130 132 337 127 126 338 89 89 339 132 130 340 124 125 341 131 87 342 89 89 343 130 132 344 128 133 345 87 92 346 129 127 347 133 134 348 131 87 349 130 132 350 87 92 351 94 91 352 133 134 353 137 135 354 141 136 355 161 137 356 138 138 357 142 139 358 135 140 359 162 141 360 141 136 361 147 142 362 136 143 363 139 144 364 140 145 365 136 143 366 140 145 367 137 135 368 142 139 369 139 144 370 135 140 371 139 144 372 145 146 373 140 145 374 143 147 375 146 148 376 147 142 377 145 146 378 144 149 379 143 147 380 142 139 381 138 138 382 145 146 383 144 149 384 146 148 385 143 147 386 145 146 387 138 138 388 148 150 389 144 149 390 148 150 391 149 151 392 147 142 393 150 152 394 162 141 395 148 150 396 151 153 397 149 151 398 149 151 399 153 154 400 150 152 401 138 138 402 156 155 403 151 153 404 152 156 405 156 155 406 154 157 407 153 154 408 154 157 409 155 158 410 158 159 411 159 160 412 155 158 413 157 161 414 159 160 415 161 137 416 158 159 417 138 138 418 135 140 419 161 137 420 136 143 421 137 135 422 162 141 423 161 137 424 141 136 425 160 162 426 135 140 427 136 143 428 160 162 429 136 143 430 161 137 431 34 29 432 33 44 433 23 30 434 35 40 435 34 29 436 24 24 437 31 23 438 35 40 439 24 24 440 25 25 441 36 32 442 31 23 443 26 31 444 37 34 445 36 32 446 27 33 447 38 45 448 37 34 449 39 35 450 38 45 451 27 33 452 40 42 453 39 35 454 28 27 455 32 26 456 40 42 457 28 27 458 29 28 459 41 37 460 32 26 461 30 36 462 42 38 463 41 37 464 23 30 465 33 44 466 42 38 467 45 43 468 48 48 469 33 44 470 43 39 471 45 43 472 35 40 473 37 34 474 49 49 475 43 39 476 37 34 477 46 46 478 49 49 479 47 47 480 46 46 481 39 35 482 44 41 483 47 47 484 40 42 485 42 38 486 48 48 487 44 41 488 78 85 489 85 83 490 77 75 491 75 77 492 80 81 493 74 78 494 74 78 495 83 82 496 82 79 497 81 76 498 80 81 499 75 77 500 76 74 501 84 73 502 81 76 503 86 84 504 85 83 505 78 85 506 82 79 507 86 84 508 79 86 509 93 94 510 91 90 511 87 92 512 94 91 513 92 96 514 131 87 515 134 93 516 95 97 517 93 94 518 90 88 519 96 102 520 95 97 521 92 96 522 96 102 523 90 88 524 98 98 525 100 99 526 91 90 527 95 97 528 102 103 529 99 100 530 93 94 531 99 100 532 98 98 533 100 99 534 105 101 535 94 91 536 105 101 537 101 104 538 92 96 539 99 100 540 104 109 541 98 98 542 98 98 543 104 109 544 108 107 545 100 99 546 108 107 547 105 101 548 107 108 549 109 111 550 102 103 551 109 111 552 113 114 553 103 106 554 103 106 555 110 115 556 104 109 557 104 109 558 110 115 559 111 112 560 105 101 561 112 113 562 107 108 563 107 108 564 112 113 565 106 110 566 108 107 567 111 112 568 112 113 569 115 118 570 116 120 571 111 112 572 111 112 573 117 119 574 112 113 575 112 113 576 117 119 577 106 110 578 113 114 579 118 117 580 115 118 581 114 116 582 120 121 583 118 117 584 117 119 585 120 121 586 114 116 587 121 123 588 122 128 589 116 120 590 116 120 591 123 129 592 117 119 593 118 117 594 125 122 595 126 131 596 118 117 597 126 131 598 121 123 599 122 128 600 123 129 601 116 120 602 123 129 603 119 124 604 117 119 605 127 126 606 124 125 607 120 121 608 126 131 609 128 133 610 121 123 611 121 123 612 128 133 613 129 127 614 123 129 615 129 127 616 133 134 617 123 129 618 133 134 619 119 124 620 119 124 621 133 134 622 127 126 623 132 130 624 134 93 625 126 131 626 130 132 627 89 89 628 124 125 629 134 93 630 88 95 631 128 133 632 128 133 633 88 95 634 87 92 635 129 127 636 87 92 637 133 134 638 89 89 639 134 93 640 132 130 641 133 134 642 94 91 643 131 87 644 141 136 645 137 135 646 140 145 647 136 143 648 135 140 649 139 144 650 139 144 651 142 139 652 145 146 653 141 136 654 140 145 655 143 147 656 140 145 657 145 146 658 143 147 659 147 142 660 141 136 661 143 147 662 146 148 663 150 152 664 147 142 665 145 146 666 148 150 667 144 149 668 144 149 669 149 151 670 146 148 671 146 148 672 149 151 673 150 152 674 148 150 675 138 138 676 151 153 677 149 151 678 151 153 679 152 156 680 162 141 681 150 152 682 153 154 683 149 151 684 152 156 685 153 154 686 153 154 687 152 156 688 154 157 689 152 156 690 151 153 691 156 155 692 153 154 693 155 158 694 157 161 695 153 154 696 157 161 697 162 141 698 154 157 699 156 155 700 158 159 701 155 158 702 154 157 703 158 159 704 155 158 705 159 160 706 157 161 707 162 141 708 157 161 709 161 137 710 156 155 711 138 138 712 158 159 713 159 160 714 160 162 715 161 137 716 159 160 717 158 159 718 160 162 719 158 159 720 135 140 721 160 162 722</p>
        </triangles>
      </mesh>
    </geometry>
  </library_geometries>
  <library_visual_scenes>
    <visual_scene id="Scene" name="Scene">
      <node id="GanondorfSword_LOD0" name="GanondorfSword_LOD0" type="NODE">
        <matrix sid="transform">1 0 0 0 0 1 0 0 0 0 1 0 0 0 0 1</matrix>
        <instance_geometry url="#GanondorfSword_LOD0-mesh" name="GanondorfSword_LOD0">
          <bind_material>
            <technique_common>
              <instance_material symbol="Sheath-material" target="#Sheath-material">
                <bind_vertex_input semantic="UVMap" input_semantic="TEXCOORD" input_set="0"/>
              </instance_material>
              <instance_material symbol="Gold-material" target="#Gold-material">
                <bind_vertex_input semantic="UVMap" input_semantic="TEXCOORD" input_set="0"/>
              </instance_material>
              <instance_material symbol="Gem-material" target="#Gem-material">
                <bind_vertex_input semantic="UVMap" input_semantic="TEXCOORD" input_set="0"/>
              </instance_material>
            </technique_common>
          </bind_material>
        </instance_geometry>
      </node>
    </visual_scene>
  </library_visual_scenes>
  <scene>
    <instance_visual_scene url="#Scene"/>
  </scene>
</COLLADA>